<svg width="55" height="45" viewBox="0 0 55 45" fill="none" xmlns="http://www.w3.org/2000/svg">
<path id="Vector" d="M0 44.5C1.82336 44.5 3.57205 43.8953 4.86136 42.819C6.15067 41.7428 6.875 40.283 6.875 38.7609C6.875 40.283 7.59933 41.7428 8.88864 42.819C10.178 43.8953 11.9266 44.5 13.75 44.5C15.5734 44.5 17.322 43.8953 18.6114 42.819C19.9007 41.7428 20.625 40.283 20.625 38.7609C20.625 40.283 21.3493 41.7428 22.6386 42.819C23.928 43.8953 25.6766 44.5 27.5 44.5C29.3234 44.5 31.072 43.8953 32.3614 42.819C33.6507 41.7428 34.375 40.283 34.375 38.7609C34.375 40.283 35.0993 41.7428 36.3886 42.819C37.678 43.8953 39.4266 44.5 41.25 44.5C43.0734 44.5 44.822 43.8953 46.1114 42.819C47.4007 41.7428 48.125 40.283 48.125 38.7609C48.125 40.283 48.8493 41.7428 50.1386 42.819C51.428 43.8953 53.1766 44.5 55 44.5M6.875 5.28261V4.32609C6.875 3.31135 7.35789 2.33817 8.21743 1.62063C9.07697 0.903105 10.2428 0.5 11.4583 0.5C12.6739 0.5 13.8397 0.903105 14.6992 1.62063C15.5588 2.33817 16.0417 3.31135 16.0417 4.32609V23.4565C16.0417 26.8751 16.9583 31.059 19.6052 32.5932C20.2285 32.9548 21.0123 33.0217 21.7708 33.0217M29.7917 5.28261V4.32609C29.7917 3.31135 30.2746 2.33817 31.1341 1.62063C31.9936 0.903105 33.1594 0.5 34.375 0.5C35.5906 0.5 36.7564 0.903105 37.6159 1.62063C38.4754 2.33817 38.9583 3.31135 38.9583 4.32609V23.4565C38.9583 26.8751 39.875 31.059 42.5219 32.5932C43.1452 32.9548 43.929 33.0217 44.6875 33.0217M16.0417 17.7174H38.9583M16.0417 10.0652H38.9583M16.1356 25.3696H39.0523" stroke="black"/>
</svg>
