<svg width="180" height="31" viewBox="0 0 180 31" fill="none" xmlns="http://www.w3.org/2000/svg">
<path id="Vector" d="M180 30.685C133.013 30.8937 72.8557 30.929 25.936 30.9884C23.9374 30.9723 19.0032 31.0278 17.0326 30.9804C11.9796 30.7918 7.09906 28.6412 3.94443 25.2181C-4.39489 16.4472 1.20354 2.71354 14.0365 0.382422C17.4009 -0.259846 22.4679 0.122289 25.936 0.0315447C55.1061 0.062801 103.351 0.133383 132.598 0.165648C132.594 0.165648 180 0.339067 180 0.339067L132.594 0.508456C103.277 0.558869 55.1608 0.598193 25.936 0.645582C22.5494 0.748425 17.4918 0.374356 14.1962 1.01259C1.9459 3.26103 -3.38446 16.4038 4.54581 24.7967C7.55477 28.0856 12.2243 30.1576 17.0687 30.3502C18.9531 30.3855 23.956 30.3704 25.936 30.3784C72.8277 30.441 133.053 30.4682 180 30.685Z" fill="white"/>
</svg>
