<svg width="37" height="30" viewBox="0 0 37 30" fill="none" xmlns="http://www.w3.org/2000/svg">
<path id="Vector" d="M0 29.5C1.22663 29.5 2.40301 29.1015 3.27037 28.3921C4.13772 27.6827 4.625 26.7206 4.625 25.7174C4.625 26.7206 5.11228 27.6827 5.97963 28.3921C6.84699 29.1015 8.02337 29.5 9.25 29.5C10.4766 29.5 11.653 29.1015 12.5204 28.3921C13.3877 27.6827 13.875 26.7206 13.875 25.7174C13.875 26.7206 14.3623 27.6827 15.2296 28.3921C16.097 29.1015 17.2734 29.5 18.5 29.5C19.7266 29.5 20.903 29.1015 21.7704 28.3921C22.6377 27.6827 23.125 26.7206 23.125 25.7174C23.125 26.7206 23.6123 27.6827 24.4796 28.3921C25.347 29.1015 26.5234 29.5 27.75 29.5C28.9766 29.5 30.153 29.1015 31.0204 28.3921C31.8877 27.6827 32.375 26.7206 32.375 25.7174C32.375 26.7206 32.8623 27.6827 33.7296 28.3921C34.597 29.1015 35.7734 29.5 37 29.5M4.625 3.65217V3.02174C4.625 2.35293 4.94985 1.71152 5.52809 1.2386C6.10632 0.765683 6.89058 0.5 7.70833 0.5C8.52608 0.5 9.31034 0.765683 9.88858 1.2386C10.4668 1.71152 10.7917 2.35293 10.7917 3.02174V15.6304C10.7917 17.8836 11.4083 20.6411 13.189 21.6523C13.6083 21.8907 14.1355 21.9348 14.6458 21.9348M20.0417 3.65217V3.02174C20.0417 2.35293 20.3665 1.71152 20.9448 1.2386C21.523 0.765683 22.3072 0.5 23.125 0.5C23.9428 0.5 24.727 0.765683 25.3052 1.2386C25.8835 1.71152 26.2083 2.35293 26.2083 3.02174V15.6304C26.2083 17.8836 26.825 20.6411 28.6056 21.6523C29.025 21.8907 29.5522 21.9348 30.0625 21.9348M10.7917 11.8478H26.2083M10.7917 6.80435H26.2083M10.8549 16.8913H26.2715" stroke="black"/>
</svg>
