<svg width="230" height="50" viewBox="0 0 230 50" fill="none" xmlns="http://www.w3.org/2000/svg">
<path id="Vector" d="M3.29611e-06 1.22959C57.7007 0.912926 155.046 0.254982 211.78 0.0519472C225.424 -1.19749 234.67 20.328 227.519 37.2006C224.328 44.9462 218.069 49.4454 211.862 48.9075C209.602 48.9056 203.265 48.934 200.908 48.9324C191.494 48.9528 138.458 49.0872 127.879 49.1056L11.0329 49.245L127.877 48.5257C138.782 48.4806 191.213 48.2037 200.905 48.1631C203.251 48.1442 209.575 48.1261 211.859 48.1075C217.893 48.6153 223.926 44.2731 227.016 36.757C233.885 20.432 225.01 -0.346037 211.783 0.851947C155.402 0.974325 57.2497 1.20899 3.29611e-06 1.22959Z" fill="white"/>
</svg>
