<svg width="230" height="50" viewBox="0 0 230 50" fill="none" xmlns="http://www.w3.org/2000/svg">
<path id="Vector" d="M230 1.22959C172.299 0.912926 74.9544 0.254982 18.2198 0.0519472C4.57581 -1.19749 -4.66983 20.328 2.48145 37.2006C5.67204 44.9462 11.9307 49.4454 18.1384 48.9075C20.398 48.9056 26.7354 48.934 29.092 48.9324C38.506 48.9528 91.5422 49.0872 102.121 49.1056L218.967 49.245L102.123 48.5257C91.2178 48.4806 38.7873 48.2037 29.0949 48.1631C26.749 48.1442 20.4249 48.1261 18.1413 48.1075C12.1073 48.6153 6.0741 44.2731 2.98412 36.757C-3.88527 20.432 4.99008 -0.346037 18.2168 0.851947C74.5976 0.974325 172.75 1.20899 230 1.22959Z" fill="white"/>
</svg>
