<svg width="35" height="35" viewBox="0 0 35 35" fill="none" xmlns="http://www.w3.org/2000/svg">
<g id="mdi:place-outline">
<path id="Vector" d="M17.5 9.47925C18.4669 9.47925 19.3942 9.86336 20.0779 10.5471C20.7617 11.2308 21.1458 12.1581 21.1458 13.1251C21.1458 13.6039 21.0515 14.0779 20.8683 14.5203C20.685 14.9626 20.4165 15.3645 20.0779 15.7031C19.7394 16.0416 19.3375 16.3102 18.8952 16.4934C18.4528 16.6766 17.9787 16.7709 17.5 16.7709C16.533 16.7709 15.6057 16.3868 14.922 15.7031C14.2382 15.0193 13.8541 14.092 13.8541 13.1251C13.8541 12.1581 14.2382 11.2308 14.922 10.5471C15.6057 9.86336 16.533 9.47925 17.5 9.47925ZM17.5 2.91675C20.2074 2.91675 22.8039 3.99227 24.7183 5.9067C26.6328 7.82113 27.7083 10.4177 27.7083 13.1251C27.7083 20.7813 17.5 32.0834 17.5 32.0834C17.5 32.0834 7.29163 20.7813 7.29163 13.1251C7.29163 10.4177 8.36714 7.82113 10.2816 5.9067C12.196 3.99227 14.7925 2.91675 17.5 2.91675ZM17.5 5.83342C15.5661 5.83342 13.7114 6.60164 12.344 7.9691C10.9765 9.33655 10.2083 11.1912 10.2083 13.1251C10.2083 14.5834 10.2083 17.5001 17.5 27.2855C24.7916 17.5001 24.7916 14.5834 24.7916 13.1251C24.7916 11.1912 24.0234 9.33655 22.6559 7.9691C21.2885 6.60164 19.4338 5.83342 17.5 5.83342Z" fill="white"/>
</g>
</svg>
