<svg width="35" height="35" viewBox="0 0 35 35" fill="none" xmlns="http://www.w3.org/2000/svg">
<g id="ix:e-mail-filled">
<path id="Vector" fill-rule="evenodd" clip-rule="evenodd" d="M5.15121 4.375L16.0425 13.7532L26.9339 4.375H5.15121ZM2.91846 4.375H2.91675V4.37705L2.91846 4.375ZM2.91675 6.3V24.7917H14.611C14.5926 24.5491 14.5834 24.3058 14.5834 24.0625C14.5834 18.8273 18.8273 14.5833 24.0626 14.5833C25.9418 14.5833 27.6934 15.1302 29.1667 16.0735V6.3013L16.0425 17.6027L2.91675 6.3ZM29.1667 4.3752V4.375H29.1665L29.1667 4.3752ZM27.947 29.7698L28.2514 31.4583C26.9846 31.875 25.6933 32.0833 24.3775 32.0833C21.9559 32.0833 19.9857 31.3779 18.4669 29.9671C16.8501 28.4759 16.0417 26.5022 16.0417 24.046C16.0417 21.7288 16.8081 19.8245 18.3409 18.3333C19.9226 16.8056 21.9278 16.0417 24.3565 16.0417C26.5542 16.0417 28.3705 16.6338 29.8052 17.818C30.5191 18.4101 31.0755 19.1374 31.4745 20C31.8804 20.8918 32.0834 21.875 32.0834 22.9495C32.0834 24.6528 31.6109 26.0124 30.6661 27.0285C29.8192 27.9349 28.8639 28.3881 27.8 28.3881C26.6662 28.3881 26.0433 27.8728 25.9313 26.8421C25.2314 27.8728 24.2865 28.3881 23.0967 28.3881C22.1379 28.3881 21.3785 28.1104 20.8185 27.5548C20.2096 26.9554 19.9052 26.133 19.9051 25.0877C19.9051 24.3932 20.0434 23.7116 20.3199 23.0428C20.5963 22.3739 20.9795 21.7946 21.4694 21.3048C22.4003 20.3765 23.5971 19.9123 25.0599 19.9123C26.1658 19.9123 27.1981 20.0914 28.1569 20.4496L27.4536 25.011C27.3836 25.4569 27.3486 25.7821 27.3486 25.9868C27.3486 26.4912 27.5621 26.7434 27.989 26.7434C28.5489 26.7434 29.0493 26.4035 29.4903 25.7237C30.0292 24.8976 30.2986 23.9181 30.2986 22.7851C30.2986 21.228 29.7737 20.0146 28.7238 19.1447C27.5621 18.1871 26.1203 17.7084 24.3985 17.7084C23.0687 17.7084 21.8579 18.0373 20.7661 18.6952C19.7372 19.3165 18.9638 20.1571 18.4459 21.2171C18.0329 22.0797 17.8265 23.0373 17.8265 24.0899C17.8265 26.0855 18.5194 27.6682 19.9051 28.8377C21.1229 29.8684 22.6697 30.3838 24.5455 30.3838C25.6163 30.3838 26.7501 30.1791 27.947 29.7698ZM25.9627 21.5899C25.6058 21.4875 25.3154 21.4364 25.0914 21.4364C24.6925 21.4364 24.297 21.5406 23.9051 21.7489C23.5131 21.9572 23.1772 22.2442 22.8972 22.6097C22.3233 23.3479 22.0363 24.1739 22.0363 25.0877C22.0363 25.5994 22.1623 26.0033 22.4143 26.2994C22.6663 26.5954 23.0092 26.7434 23.4432 26.7434C24.0731 26.7434 24.5945 26.4729 25.0074 25.932C25.2244 25.6542 25.3958 25.1169 25.5218 24.3201L25.9627 21.5899Z" fill="white"/>
</g>
</svg>
