<svg width="252" height="46" viewBox="0 0 252 46" fill="none" xmlns="http://www.w3.org/2000/svg">
<g id="Group 253">
<path id="Vector" d="M252 45.5325C186.218 45.8422 101.998 45.8946 36.3103 45.9829C33.5123 45.9589 26.6045 46.0412 23.8456 45.9709C16.7714 45.6911 9.93868 42.4998 5.5222 37.4204C-6.15284 24.4055 1.68496 4.02655 19.6511 0.567465C24.3612 -0.385577 31.455 0.181461 36.3103 0.0468082C77.1485 0.0931886 144.691 0.197923 185.637 0.2458C185.632 0.2458 252 0.503132 252 0.503132L185.632 0.754483C144.588 0.82929 77.2252 0.887642 36.3103 0.95796C31.5692 1.11057 24.4885 0.555496 19.8746 1.50255C2.72427 4.83895 -4.73824 24.3412 6.36414 36.795C10.5767 41.6755 17.1141 44.75 23.8962 45.0358C26.5344 45.0882 33.5384 45.0657 36.3103 45.0777C101.959 45.1704 186.275 45.2108 252 45.5325Z" fill="white"/>
</g>
</svg>
