<svg width="152" height="133" viewBox="0 0 152 133" fill="none" xmlns="http://www.w3.org/2000/svg">
<g id="Group 247">
<path id="Vector" d="M14.2009 127.434C14.0061 127.434 13.9009 127.554 13.8837 127.793C13.8277 128.823 13.6441 129.641 13.3322 130.245C13.0202 130.851 12.4253 131.266 11.5424 131.487C10.6617 131.709 9.14586 131.819 6.9971 131.819C6.11639 131.819 5.42598 131.808 4.93263 131.79V115.522C4.93263 114.714 4.98265 114.234 5.08191 114.076C5.18342 113.919 5.5014 113.831 6.03504 113.813C6.5657 113.796 6.88363 113.773 6.98215 113.743C7.0844 113.717 7.1344 113.648 7.1344 113.537C7.1344 113.353 6.97096 113.263 6.63808 113.263H6.33506C6.02308 113.263 5.62975 113.277 5.15134 113.304C4.67367 113.333 4.35271 113.344 4.18628 113.344C2.38756 113.344 1.18669 113.318 0.579903 113.263H0.332089C0.110421 113.263 0 113.344 0 113.51C0 113.711 0.174604 113.813 0.524646 113.813C1.36728 113.813 1.85989 113.869 1.99722 113.98C2.13381 114.09 2.20395 114.484 2.20395 115.164V130.659C2.20395 131.23 2.13381 131.575 1.99722 131.694C1.85989 131.813 1.44343 131.892 0.74335 131.928C0.247769 131.965 0 132.05 0 132.178C0 132.341 0.157457 132.426 0.469434 132.426L11.9066 132.507C12.4372 132.507 12.9127 132.525 13.3351 132.563C13.7583 132.601 14.0233 132.619 14.1337 132.619H14.4345C14.4897 131.513 14.5159 130.723 14.5159 130.245V127.849C14.5368 127.572 14.4286 127.434 14.2009 127.434Z" fill="white"/>
<path id="Vector_2" d="M18.1542 112.986C17.6587 112.986 17.2392 113.146 16.9004 113.469C16.5593 113.79 16.3906 114.181 16.3906 114.642C16.3906 115.026 16.522 115.353 16.7899 115.618C17.0556 115.887 17.3907 116.02 17.796 116.02C18.5857 116.02 18.9797 115.705 18.9797 115.081C19.2186 115.432 19.338 115.855 19.338 116.35C19.338 116.974 19.1715 117.452 18.8424 117.784C18.5103 118.114 17.9244 118.4 17.0788 118.639C16.8601 118.694 16.7489 118.784 16.7489 118.913C16.7489 119.061 16.8481 119.134 17.0526 119.134C17.5482 119.134 18.1632 118.924 18.8976 118.501C19.9619 117.895 20.4956 116.921 20.4956 115.577C20.4956 114.825 20.2739 114.205 19.8336 113.717C19.3932 113.231 18.8334 112.986 18.1542 112.986Z" fill="white"/>
<path id="Vector_3" d="M37.2163 127.405C37.0156 127.405 36.8962 127.633 36.8581 128.087C36.6946 130.137 36.0035 131.301 34.7936 131.571C34.0943 131.738 31.7239 131.819 27.6861 131.819V122.583H28.9191C30.3066 122.583 31.1671 122.635 31.4963 122.747C32.2456 123.003 32.6949 123.674 32.8405 124.761C32.9509 125.624 33.027 126.134 33.0733 126.289C33.1203 126.446 33.2047 126.525 33.333 126.525C33.5346 126.525 33.6361 126.405 33.6361 126.166C33.6361 126.038 33.6278 125.881 33.6129 125.697C33.5547 124.962 33.5256 123.609 33.5256 121.644C33.5256 121.312 33.5427 120.825 33.5808 120.184C33.6159 119.539 33.6361 119.053 33.6361 118.72C33.6361 118.391 33.5346 118.224 33.333 118.224C33.1666 118.224 33.0651 118.417 33.03 118.805C32.8636 120.312 32.5576 121.222 32.106 121.534C31.6567 121.846 30.4028 122.003 28.3474 122.003H27.6861V113.896H29.9453C32.4411 113.896 33.9831 114.061 34.572 114.394C35.3624 114.84 35.9311 115.895 36.2804 117.56C36.3707 118.021 36.517 118.253 36.7208 118.253C36.8872 118.253 36.9685 118.16 36.9685 117.977C36.9685 117.831 36.9603 117.712 36.9394 117.618L36.8319 116.432C36.7036 115.035 36.6185 113.942 36.5842 113.151C36.1229 113.225 35.6191 113.263 35.0676 113.263H23.3886C22.9833 113.263 22.7818 113.341 22.7818 113.495C22.7818 113.653 22.9281 113.732 23.2221 113.732C24.0678 113.732 24.5664 113.781 24.7238 113.884C24.8813 113.986 24.9597 114.303 24.9597 114.837V130.38C24.9597 131.079 24.9074 131.513 24.8051 131.68C24.7066 131.845 24.4148 131.948 23.9394 131.983C23.2953 132.032 22.9482 132.059 22.893 132.059C22.7818 132.073 22.7266 132.131 22.7266 132.231C22.7266 132.379 22.902 132.452 23.2513 132.452H26.695C32.018 132.452 35.5811 132.507 37.3828 132.619V131.709C37.3828 130.953 37.3999 130.163 37.438 129.335C37.4731 128.511 37.4903 128.058 37.4903 127.985C37.4903 127.598 37.3999 127.405 37.2163 127.405Z" fill="white"/>
<path id="Vector_4" d="M46.1138 121.367C44.6442 120.633 43.6881 120.064 43.2478 119.659C42.4581 118.942 42.0641 117.995 42.0641 116.82C42.0641 115.808 42.3357 115.009 42.8776 114.42C43.4172 113.831 44.1487 113.537 45.0674 113.537C46.0034 113.537 46.849 113.901 47.6005 114.627C48.3529 115.353 48.8313 116.257 49.032 117.344C49.1052 117.767 49.2426 117.977 49.4463 117.977C49.6299 117.977 49.7112 117.875 49.6941 117.674L49.665 117.233C49.5747 116.718 49.5276 116.02 49.5276 115.138C49.5276 114.514 49.5568 113.98 49.6098 113.537C49.6299 113.463 49.6389 113.353 49.6389 113.207C49.6389 112.986 49.5486 112.875 49.3649 112.875C49.1985 112.875 49.0962 112.968 49.0611 113.151C49.0059 113.463 48.9447 113.656 48.8805 113.732C48.8163 113.805 48.685 113.84 48.4812 113.84C48.2976 113.84 48.0148 113.767 47.6267 113.621C46.525 113.198 45.6623 112.986 45.0383 112.986C43.5337 112.986 42.2887 113.484 41.3065 114.475C40.3236 115.467 39.834 116.726 39.834 118.254C39.834 119.446 40.172 120.449 40.8512 121.26C41.5304 122.067 42.744 122.904 44.4868 123.767C45.9392 124.484 46.9624 125.207 47.5602 125.931C48.1551 126.659 48.4551 127.537 48.4551 128.563C48.4551 129.724 48.1461 130.618 47.5311 131.254C46.9154 131.886 46.0496 132.204 44.9271 132.204C42.3036 132.204 40.7498 130.551 40.2743 127.248C40.1982 126.802 40.0698 126.581 39.8892 126.581C39.6675 126.581 39.5571 126.717 39.5571 126.994C39.5571 127.175 39.566 127.324 39.5832 127.434C39.6212 128.28 39.6384 128.793 39.6384 128.977C39.6384 129.933 39.566 130.974 39.4197 132.093C39.3996 132.166 39.3906 132.277 39.3906 132.423C39.3906 132.645 39.4839 132.755 39.6675 132.755C39.8892 132.755 40.0064 132.624 40.0265 132.362C40.0788 131.851 40.2191 131.598 40.4378 131.598C40.6214 131.598 40.8982 131.68 41.2654 131.845C42.6417 132.452 43.8255 132.755 44.8196 132.755C46.5071 132.755 47.9536 132.201 49.1574 131.088C50.3591 129.977 50.9592 128.63 50.9592 127.047C50.9592 125.91 50.583 124.892 49.8314 124C49.0791 123.111 47.8401 122.233 46.1138 121.367Z" fill="white"/>
<path id="Vector_5" d="M68.2591 125.834C68.1135 125.834 67.9941 126.056 67.9008 126.496C67.6613 127.673 67.3261 128.679 66.8947 129.516C66.4633 130.353 65.8536 131.009 65.0639 131.487C64.2735 131.965 63.4018 132.204 62.4487 132.204C60.5918 132.204 59.1043 131.469 57.9847 129.997C56.6995 128.306 56.0547 125.928 56.0547 122.857C56.0547 119.42 56.8361 116.811 58.399 115.026C59.2618 114.032 60.4373 113.537 61.924 113.537C63.8511 113.537 65.2647 114.274 66.1656 115.744C66.6059 116.461 66.947 117.554 67.1866 119.024C67.2418 119.373 67.3612 119.548 67.5418 119.548C67.6351 119.548 67.7083 119.522 67.7635 119.466C67.8187 119.411 67.8449 119.207 67.8449 118.86C67.8449 116.432 67.9471 114.778 68.1486 113.896C68.1859 113.732 68.2039 113.613 68.2039 113.537C68.2039 113.391 68.1307 113.318 67.9822 113.318C67.8367 113.318 67.6441 113.575 67.4045 114.087C67.2589 114.382 67.1015 114.531 66.938 114.531C66.7343 114.531 66.4313 114.411 66.029 114.172C65.2005 113.694 64.5072 113.376 63.9474 113.222C63.3876 113.064 62.6383 112.986 61.7024 112.986C59.1312 112.986 57.0346 113.901 55.4076 115.729C53.7835 117.56 52.9707 119.916 52.9707 122.802C52.9707 125.671 53.8566 128.046 55.6292 129.93C57.4018 131.813 59.6379 132.755 62.3375 132.755C64.1922 132.755 65.7812 132.175 67.1015 131.018C67.3612 131.166 67.615 131.56 67.874 132.204C67.9822 132.481 68.1135 132.619 68.2591 132.619C68.4046 132.619 68.4807 132.498 68.4807 132.26V132.012C68.4807 131.533 68.4606 131.126 68.4255 130.784C68.3875 130.443 68.3696 130.21 68.3696 130.082C68.3696 129.053 68.4046 128.023 68.4807 126.994C68.5158 126.478 68.536 126.231 68.536 126.248C68.536 125.974 68.4427 125.834 68.2591 125.834Z" fill="white"/>
<path id="Vector_6" d="M95.5856 121.583C94.74 122.12 93.7115 122.388 92.5009 122.388C92.3173 122.388 92.1516 122.379 92.0053 122.361V114.98C92.0053 114.517 92.0583 114.231 92.1688 114.119C92.4076 113.86 92.9122 113.732 93.6846 113.732C95.9969 113.732 97.1545 115.117 97.1545 117.892C97.1545 119.688 96.6328 120.919 95.5856 121.583ZM74.504 125.642C75.5833 122.391 76.5043 119.752 77.2708 117.721L78.5948 121.543C79.2852 123.449 79.7785 124.816 80.0786 125.642H74.504ZM98.3934 114.364C97.4224 113.63 95.8894 113.263 93.7959 113.263H87.7347C87.2212 113.263 86.9622 113.344 86.9622 113.51C86.9622 113.656 87.1018 113.732 87.3757 113.732H87.8452C88.3027 113.732 88.6236 113.767 88.8102 113.84C89.1222 113.971 89.2767 114.321 89.2767 114.89V131.184C89.2595 131.478 89.1744 131.662 89.0289 131.735C88.9005 131.898 88.4049 131.983 87.5421 131.983C87.3936 131.983 87.2824 131.995 87.1921 132.015C87.0958 132 86.9854 131.989 86.854 131.983C86.1368 131.965 85.6643 131.898 85.4345 131.784C85.2038 131.671 85.0172 131.405 84.8687 130.992C82.2415 123.822 80.6003 119.347 79.9383 117.563C79.0934 115.283 78.5508 113.784 78.315 113.067C78.2769 112.96 78.2298 112.904 78.1746 112.904C78.0843 112.904 78.0112 113.003 77.9559 113.207L77.8365 113.711C77.7081 113.983 77.6238 114.225 77.5798 114.443C76.099 118.554 74.1749 124.006 71.8134 130.793C71.6649 131.236 71.4634 131.533 71.2066 131.691C70.9499 131.848 70.5334 131.936 69.9535 131.954C69.3758 131.974 69.084 132.064 69.084 132.231C69.084 132.397 69.2154 132.478 69.4721 132.478C69.5624 132.478 69.6818 132.463 69.8281 132.434C70.105 132.373 70.3901 132.341 70.6819 132.341C70.9767 132.341 71.2619 132.353 71.5365 132.37C72.6561 132.443 73.6413 132.478 74.4839 132.478C74.9616 132.478 75.2012 132.388 75.2012 132.204C75.2012 132.038 74.9354 131.948 74.4018 131.928C73.539 131.872 73.0785 131.837 73.0233 131.819C72.8046 131.764 72.6934 131.607 72.6934 131.35C72.6934 130.907 73.2449 129.216 74.3436 126.277H80.2331C80.8772 128.228 81.2795 129.487 81.4459 130.056L81.5855 130.441L81.8101 131.172C81.8482 131.298 81.8653 131.371 81.8653 131.388C81.8653 131.694 81.0578 131.854 79.4427 131.872C78.9471 131.872 78.6993 131.98 78.6993 132.189C78.6993 132.385 78.8829 132.478 79.2509 132.478C79.3964 132.478 79.536 132.469 79.6644 132.452L83.1633 132.341L86.6615 132.452C86.8077 132.469 86.9734 132.478 87.157 132.478C87.2742 132.478 87.3585 132.463 87.4257 132.434C87.5302 132.446 87.6496 132.452 87.79 132.452H94.125C94.3818 132.452 94.5101 132.359 94.5101 132.175C94.5101 132.047 94.4109 131.983 94.2071 131.983C93.7115 131.983 93.198 131.948 92.6644 131.872C92.3524 131.819 92.1517 131.662 92.0584 131.405C92.0233 131.295 92.0053 131.027 92.0053 130.603V122.776C92.7928 122.904 93.5011 122.968 94.125 122.968C95.5946 122.968 96.8074 122.656 97.7605 122.029C99.2853 121.038 100.047 119.65 100.047 117.866C100.047 116.359 99.4958 115.193 98.3934 114.364Z" fill="white"/>
<path id="Vector_7" d="M130.376 129.744C129.163 131.146 127.565 131.845 125.583 131.845C124.169 131.845 123.242 131.735 122.801 131.513C122.673 131.44 122.595 131.347 122.565 131.236C122.539 131.126 122.524 130.814 122.524 130.297V115.583C122.524 114.828 122.58 114.385 122.691 114.257C122.947 113.997 123.691 113.869 124.921 113.869C127.455 113.869 129.321 114.583 130.513 116.012C131.708 117.441 132.303 119.685 132.303 122.747C132.303 125.936 131.661 128.268 130.376 129.744ZM104.97 125.642C106.049 122.391 106.97 119.752 107.738 117.721L109.061 121.543C109.749 123.449 110.245 124.816 110.545 125.642H104.97ZM129.795 113.954C128.419 113.492 126.079 113.263 122.772 113.263H117.979C117.667 113.263 117.513 113.336 117.513 113.481C117.513 113.685 117.722 113.787 118.146 113.787C118.953 113.787 119.425 113.86 119.562 114.006C119.702 114.155 119.77 114.676 119.77 115.577V130.441C119.77 131.009 119.734 131.359 119.661 131.487C119.475 131.764 119.008 131.901 118.256 131.901C117.892 131.901 117.644 131.933 117.504 131.995C117.445 131.989 117.384 131.986 117.32 131.983C116.603 131.965 116.131 131.898 115.9 131.784C115.67 131.671 115.483 131.408 115.335 130.992C112.708 123.822 111.066 119.347 110.405 117.563C109.559 115.283 109.017 113.787 108.778 113.07C108.743 112.96 108.697 112.904 108.641 112.904C108.55 112.904 108.478 113.006 108.423 113.207L108.303 113.709C108.174 113.98 108.09 114.225 108.047 114.443C106.565 118.554 104.641 124.006 102.279 130.793C102.131 131.236 101.929 131.533 101.673 131.691C101.417 131.848 100.996 131.936 100.42 131.954C99.8396 131.971 99.5508 132.064 99.5508 132.231C99.5508 132.397 99.6791 132.478 99.9381 132.478C100.028 132.478 100.149 132.463 100.297 132.434C100.571 132.373 100.857 132.341 101.148 132.341C101.443 132.341 101.729 132.35 102.003 132.37C103.122 132.443 104.107 132.478 104.95 132.478C105.428 132.478 105.667 132.388 105.667 132.204C105.667 132.038 105.399 131.948 104.869 131.928C104.006 131.872 103.544 131.837 103.492 131.819C103.271 131.764 103.16 131.607 103.16 131.35C103.16 130.909 103.711 129.216 104.81 126.277H110.699C111.341 128.225 111.746 129.487 111.909 130.056L112.052 130.443L112.277 131.172C112.314 131.298 112.332 131.371 112.332 131.388C112.332 131.694 111.525 131.854 109.909 131.872C109.414 131.872 109.166 131.98 109.166 132.192C109.166 132.385 109.35 132.478 109.717 132.478C109.862 132.478 110 132.469 110.131 132.452L113.629 132.341L117.125 132.452C117.274 132.469 117.437 132.478 117.624 132.478C117.754 132.478 117.854 132.461 117.921 132.426H125.361C128.134 132.426 130.346 131.761 131.999 130.435C134.259 128.627 135.39 126.102 135.39 122.857C135.39 120.738 134.874 118.863 133.845 117.23C132.819 115.598 131.469 114.505 129.795 113.954Z" fill="white"/>
<path id="Vector_8" d="M151.723 127.514C151.522 127.514 151.402 127.741 151.368 128.196C151.201 130.245 150.513 131.409 149.3 131.68C148.603 131.846 146.234 131.928 142.193 131.928V122.691H143.429C144.816 122.691 145.674 122.744 146.006 122.855C146.755 123.112 147.202 123.782 147.347 124.869C147.458 125.732 147.537 126.243 147.58 126.397C147.627 126.555 147.714 126.633 147.843 126.633C148.044 126.633 148.143 126.513 148.143 126.275C148.143 126.146 148.137 125.989 148.123 125.805C148.064 125.071 148.032 123.718 148.032 121.752C148.032 121.42 148.052 120.934 148.088 120.292C148.126 119.648 148.143 119.161 148.143 118.828C148.143 118.499 148.041 118.333 147.84 118.333C147.676 118.333 147.575 118.525 147.537 118.913C147.373 120.42 147.064 121.33 146.615 121.642C146.163 121.954 144.91 122.111 142.854 122.111H142.193V114.004H144.452C146.951 114.004 148.493 114.169 149.079 114.502C149.869 114.948 150.437 116.003 150.787 117.668C150.88 118.129 151.027 118.362 151.231 118.362C151.394 118.362 151.475 118.268 151.475 118.085C151.475 117.939 151.466 117.82 151.449 117.727L151.339 116.54C151.21 115.143 151.128 114.05 151.09 113.26C150.633 113.333 150.125 113.371 149.574 113.371H137.895C137.493 113.371 137.289 113.449 137.289 113.604C137.289 113.761 137.437 113.84 137.732 113.84C138.575 113.84 139.076 113.89 139.231 113.992C139.388 114.094 139.466 114.411 139.466 114.945V130.488C139.466 131.187 139.417 131.622 139.315 131.788C139.213 131.954 138.925 132.056 138.446 132.091C137.805 132.14 137.455 132.167 137.4 132.167C137.289 132.181 137.236 132.24 137.236 132.339C137.236 132.487 137.408 132.56 137.758 132.56H141.201C146.528 132.56 150.091 132.616 151.89 132.727V131.817C151.89 131.062 151.907 130.271 151.945 129.444C151.983 128.619 152 128.167 152 128.093C152 127.706 151.907 127.514 151.723 127.514Z" fill="white"/>
<path id="Vector_9" d="M79.035 0C75.9653 0 72.9657 0.285854 70.0526 0.824724C54.4694 9.01151 43.8398 25.3612 43.8398 44.1985C43.8398 71.233 65.735 93.1491 92.7471 93.1491C95.8139 93.1491 83.14 84.2891 86.0531 83.7494C93.1464 80.0206 114.892 83.1777 119.397 76.6008C124.787 68.735 127.942 59.213 127.942 48.9535C127.942 21.9153 106.044 0 79.035 0Z" fill="#E3E3E3"/>
<path id="Vector_10" d="M60.3353 80.8513H60.3323C60.816 80.7782 60.8891 80.77 60.3353 80.8513ZM103.542 82.0209C120.37 80.7491 131.326 79.9214 131.397 78.7787C131.464 77.6241 120.53 74.8252 107.428 74.455C91.6823 74.0087 80.5391 77.283 60.227 80.758C50.1721 71.7928 43.8393 58.7345 43.8393 44.1985C43.8393 25.3612 54.4689 9.01149 70.0521 0.824707C47.3322 5.04983 30.128 24.988 30.128 48.9505C30.128 62.3118 35.4779 74.42 44.1483 83.2538C44.0087 83.274 43.8714 83.2949 43.7318 83.315C22.8018 86.4199 20.4022 86.7699 20.4112 87.2073C20.4433 88.8426 51.2477 89.2658 51.2887 90.8809C51.3238 92.2743 29.2301 93.152 29.2652 94.5544C29.3063 96.3532 65.8218 95.8628 65.971 98.6616C66.0725 100.607 36.3907 99.0938 40.4926 103.633C41.6823 104.947 106.799 104.297 106.781 101.685C106.77 100.213 95.0812 98.4109 95.1192 96.9301C95.1864 94.4081 126.455 93.1602 126.428 92.178C126.408 91.3033 96.6761 91.6504 96.6328 90.4495C96.5888 89.268 125.169 87.7783 125.134 86.1258C125.099 84.4756 96.6179 83.9771 96.6328 82.8837C96.6358 82.5135 99.9123 82.2918 103.542 82.0209Z" fill="#DBD8D7"/>
<path id="Vector_11" d="M66.4031 44.1985L64.8924 40.7407L65.5395 40.3063L71.1551 43.3328L66.4031 44.1985ZM94.0414 56.7321L121.895 72.7258L122.584 71.3264C122.584 71.3264 99.6562 58.0293 94.9041 55.4342C94.6884 54.14 93.1786 52.6271 92.3128 51.7614C91.4493 50.8978 90.5865 48.5192 89.9394 47.222C89.2923 45.9271 84.3238 40.522 84.3238 40.522L84.5402 39.0091C86.4845 37.0641 85.6217 35.3355 85.406 34.0376C85.1874 32.7434 81.301 30.7962 79.5747 32.9591C77.8462 35.1198 78.9276 37.2798 79.359 39.0091C79.5747 41.3877 78.2776 41.1721 76.5513 41.1721C74.8257 41.1721 72.4493 42.4692 72.4493 42.4692L65.756 38.5777C64.6767 35.7669 62.7325 36.8484 62.7325 36.8484L58.4148 34.2541L57.5512 35.5512L62.5168 38.3613L61.8689 41.6034C61.8689 41.6034 61.2218 44.4142 61.6532 45.277C66.6187 51.9771 72.0179 49.1693 72.0179 49.1693L70.9394 59.7578C65.9717 56.5164 59.0619 54.7871 59.0619 54.7871V51.3292L57.7669 49.8164L55.607 50.6791L56.2541 68.6186L54.3128 55.4342L45.458 68.6186C48.6972 92.3938 66.4583 96.1375 91.6127 89.2979C119.196 78.207 102.03 69.7 102.03 69.7L92.3128 73.1579C98.359 77.4808 100.088 76.615 103.759 75.5366C99.0061 82.2366 86.9159 70.9972 86.9159 70.9972L86.7002 54.5714L87.1316 53.2742C90.5865 58.245 94.0414 56.7321 94.0414 56.7321Z" fill="#BB996B"/>
</g>
</svg>
