<svg width="230" height="50" viewBox="0 0 230 50" fill="none" xmlns="http://www.w3.org/2000/svg">
<path id="Vector" d="M-0.000485912 1.22959C57.7004 0.912928 155.045 0.254983 211.78 0.0519473C225.424 -1.1975 234.67 20.328 227.519 37.2007C224.328 44.9463 218.069 49.4455 211.862 48.9076C209.602 48.9057 203.265 48.9341 200.908 48.9325C191.494 48.9529 138.458 49.0873 127.879 49.1057L11.0324 49.2451L127.876 48.5258C138.782 48.4807 191.213 48.2038 200.905 48.1632C203.251 48.1443 209.575 48.1262 211.859 48.1076C217.893 48.6154 223.926 44.2732 227.016 36.7571C233.885 20.432 225.01 -0.346037 211.783 0.851949C155.402 0.974327 57.2494 1.20899 -0.000485912 1.22959Z" fill="white"/>
</svg>
