<svg width="35" height="35" viewBox="0 0 35 35" fill="none" xmlns="http://www.w3.org/2000/svg">
<g id="mdi:place-outline">
<path id="Vector" d="M17.5003 9.47925C18.4673 9.47925 19.3946 9.86336 20.0783 10.5471C20.7621 11.2308 21.1462 12.1581 21.1462 13.1251C21.1462 13.6039 21.0519 14.0779 20.8686 14.5203C20.6854 14.9626 20.4169 15.3645 20.0783 15.7031C19.7398 16.0416 19.3379 16.3102 18.8955 16.4934C18.4532 16.6766 17.9791 16.7709 17.5003 16.7709C16.5334 16.7709 15.6061 16.3868 14.9223 15.7031C14.2386 15.0193 13.8545 14.092 13.8545 13.1251C13.8545 12.1581 14.2386 11.2308 14.9223 10.5471C15.6061 9.86336 16.5334 9.47925 17.5003 9.47925ZM17.5003 2.91675C20.2077 2.91675 22.8043 3.99227 24.7187 5.9067C26.6331 7.82113 27.7087 10.4177 27.7087 13.1251C27.7087 20.7813 17.5003 32.0834 17.5003 32.0834C17.5003 32.0834 7.292 20.7813 7.292 13.1251C7.292 10.4177 8.36752 7.82113 10.282 5.9067C12.1964 3.99227 14.7929 2.91675 17.5003 2.91675ZM17.5003 5.83342C15.5665 5.83342 13.7118 6.60164 12.3443 7.9691C10.9769 9.33655 10.2087 11.1912 10.2087 13.1251C10.2087 14.5834 10.2087 17.5001 17.5003 27.2855C24.792 17.5001 24.792 14.5834 24.792 13.1251C24.792 11.1912 24.0238 9.33655 22.6563 7.9691C21.2889 6.60164 19.4342 5.83342 17.5003 5.83342Z" fill="white"/>
</g>
</svg>
