<svg width="67" height="59" viewBox="0 0 67 59" fill="none" xmlns="http://www.w3.org/2000/svg">
<g id="Layer_1" clip-path="url(#clip0_427_501)">
<path id="Vector" d="M6.25955 56.6343C6.17394 56.6343 6.12785 56.6874 6.12127 56.7938C6.09822 57.2523 6.01591 57.6145 5.87763 57.8836C5.73935 58.1527 5.47596 58.3355 5.08746 58.4351C4.69896 58.5348 4.0306 58.5813 3.08569 58.5813C2.69719 58.5813 2.39429 58.578 2.1737 58.568V51.338C2.1737 50.9792 2.19675 50.7632 2.23955 50.6934C2.28235 50.6236 2.42392 50.5838 2.65768 50.5771C2.89144 50.5705 3.03301 50.5572 3.07581 50.5472C3.11861 50.5339 3.14166 50.504 3.14166 50.4542C3.14166 50.3711 3.06923 50.3312 2.92436 50.3312H2.78937C2.65109 50.3312 2.4766 50.3379 2.26589 50.3512C2.05517 50.3645 1.9136 50.3711 1.84117 50.3711C1.0477 50.3711 0.51763 50.3578 0.250947 50.3346H0.142298C0.0435264 50.3346 -0.00256699 50.3711 -0.00256699 50.4442C-0.00256699 50.5339 0.0731578 50.5804 0.2279 50.5804C0.599939 50.5804 0.817236 50.6037 0.876499 50.6535C0.935762 50.7034 0.968686 50.8795 0.968686 51.1818V58.0697C0.968686 58.3222 0.939055 58.475 0.876499 58.5282C0.817236 58.5813 0.632863 58.6146 0.323379 58.6312C0.106082 58.6478 -0.00585938 58.6843 -0.00585938 58.7408C-0.00585938 58.8139 0.0632807 58.8505 0.201561 58.8505L5.2422 58.887C5.47596 58.887 5.68667 58.8937 5.87104 58.9103C6.05542 58.9269 6.17394 58.9335 6.22333 58.9335H6.35502C6.37807 58.4451 6.39124 58.0929 6.39124 57.8803V56.8137C6.39783 56.6908 6.35173 56.631 6.25296 56.631" fill="#B78F62"/>
<path id="Vector_2" d="M7.99966 50.2116C7.78236 50.2116 7.59799 50.2847 7.44654 50.4276C7.29509 50.5705 7.22266 50.7432 7.22266 50.9492C7.22266 51.122 7.28192 51.2649 7.39715 51.3845C7.51568 51.5041 7.66384 51.5639 7.84162 51.5639C8.19062 51.5639 8.36511 51.4244 8.36511 51.1486C8.47047 51.3048 8.52315 51.4908 8.52315 51.7134C8.52315 51.9925 8.45071 52.2052 8.30585 52.3514C8.16099 52.4976 7.90089 52.6238 7.52885 52.7302C7.43337 52.7534 7.38398 52.7966 7.38398 52.8531C7.38398 52.9196 7.42678 52.9495 7.51897 52.9495C7.73627 52.9495 8.00954 52.8564 8.33219 52.667C8.803 52.3979 9.03676 51.966 9.03676 51.3679C9.03676 51.0323 8.93799 50.7565 8.74374 50.5406C8.54949 50.3246 8.30256 50.2149 8.00295 50.2149" fill="#B78F62"/>
<path id="Vector_3" d="M16.4036 56.621C16.3147 56.621 16.262 56.7207 16.2455 56.9234C16.1731 57.8338 15.8702 58.3521 15.3335 58.4717C15.0274 58.5448 13.9804 58.5813 12.2025 58.5813V54.4779H12.7457C13.3581 54.4779 13.7367 54.5011 13.8816 54.551C14.2108 54.664 14.4084 54.963 14.4742 55.4448C14.5236 55.8302 14.5565 56.0561 14.5763 56.1259C14.5961 56.1957 14.6356 56.2289 14.6915 56.2289C14.7804 56.2289 14.8232 56.1758 14.8232 56.0694C14.8232 56.0129 14.8232 55.9432 14.8134 55.8601C14.787 55.5345 14.7738 54.9331 14.7738 54.0592C14.7738 53.913 14.7804 53.6971 14.7969 53.4113C14.8134 53.1256 14.8199 52.9096 14.8199 52.7634C14.8199 52.6172 14.7738 52.5441 14.6849 52.5441C14.6125 52.5441 14.5664 52.6305 14.55 52.8C14.4775 53.4711 14.3425 53.8732 14.1417 54.0127C13.9442 54.1523 13.391 54.2221 12.4856 54.2221H12.1959V50.6203H13.1902C14.2899 50.6203 14.9714 50.6934 15.2315 50.8429C15.5805 51.039 15.8307 51.5075 15.9854 52.2484C16.0249 52.4544 16.0908 52.5574 16.1797 52.5574C16.2521 52.5574 16.2883 52.5175 16.2883 52.4345C16.2883 52.368 16.285 52.3149 16.2752 52.275L16.2258 51.7467C16.1698 51.1254 16.1336 50.6403 16.1171 50.2881C15.9163 50.3213 15.6924 50.3379 15.4488 50.3379H10.2995C10.1217 50.3379 10.0328 50.3711 10.0328 50.4409C10.0328 50.5107 10.0987 50.5439 10.2271 50.5439C10.5991 50.5439 10.8197 50.5672 10.8888 50.6104C10.958 50.6569 10.9909 50.7964 10.9909 51.0356V57.9434C10.9909 58.2557 10.9678 58.4484 10.925 58.5215C10.879 58.5946 10.7538 58.6412 10.5431 58.6578C10.26 58.681 10.1052 58.691 10.0822 58.691C10.0328 58.6976 10.0098 58.7242 10.0098 58.7674C10.0098 58.8339 10.0855 58.8671 10.2402 58.8671H11.758C14.1055 58.8671 15.676 58.8903 16.4694 58.9402V58.5348C16.4694 58.1992 16.476 57.847 16.4925 57.4816C16.5089 57.1127 16.5155 56.9134 16.5155 56.8802C16.5155 56.7074 16.476 56.6243 16.3937 56.6243" fill="#B78F62"/>
<path id="Vector_4" d="M20.3246 53.9396C19.676 53.614 19.2546 53.3582 19.0603 53.1787C18.7113 52.8598 18.5368 52.4378 18.5368 51.9161C18.5368 51.4676 18.6553 51.112 18.8957 50.8496C19.1327 50.5871 19.4554 50.4575 19.8604 50.4575C20.2653 50.4575 20.6439 50.6203 20.9765 50.9426C21.309 51.2649 21.5197 51.6669 21.6086 52.1487C21.6415 52.3381 21.7008 52.4311 21.7897 52.4311C21.872 52.4311 21.9082 52.3879 21.8983 52.2949L21.8852 52.0989C21.8457 51.8696 21.8259 51.5606 21.8259 51.1685C21.8259 50.8894 21.8391 50.6535 21.8621 50.4575C21.8687 50.4243 21.8753 50.3744 21.8753 50.3113C21.8753 50.2116 21.8358 50.1651 21.7535 50.1651C21.681 50.1651 21.635 50.205 21.6185 50.288C21.5954 50.4276 21.5691 50.514 21.5395 50.5439C21.5098 50.5771 21.4539 50.5937 21.365 50.5937C21.2827 50.5937 21.1576 50.5605 20.9896 50.4974C20.5024 50.308 20.1237 50.2149 19.8472 50.2149C19.1821 50.2149 18.6356 50.4342 18.201 50.8761C17.7664 51.3181 17.5524 51.8763 17.5524 52.5541C17.5524 53.0857 17.7006 53.5309 18.0002 53.8898C18.2998 54.2486 18.8331 54.6208 19.6036 55.0062C20.2423 55.3252 20.6933 55.6441 20.9567 55.9664C21.2201 56.2887 21.3518 56.6808 21.3518 57.136C21.3518 57.651 21.2168 58.0497 20.9436 58.3321C20.6736 58.6146 20.2884 58.7541 19.7945 58.7541C18.6356 58.7541 17.9541 58.0198 17.7434 56.5512C17.7104 56.3518 17.6545 56.2555 17.5722 56.2555C17.4734 56.2555 17.4273 56.3153 17.4273 56.4382C17.4273 56.5213 17.4306 56.5844 17.4405 56.6343C17.4569 57.0097 17.4635 57.239 17.4635 57.3221C17.4635 57.7474 17.4306 58.2092 17.3647 58.7076C17.3581 58.7408 17.3516 58.7907 17.3516 58.8538C17.3516 58.9501 17.3911 59 17.4734 59C17.5722 59 17.6248 58.9402 17.6314 58.8239C17.6545 58.5979 17.717 58.485 17.8125 58.485C17.8948 58.485 18.0133 58.5215 18.178 58.5946C18.7837 58.8638 19.3072 59 19.7451 59C20.4892 59 21.1279 58.7541 21.658 58.259C22.1881 57.764 22.4548 57.1659 22.4548 56.4648C22.4548 55.9598 22.2901 55.5079 21.9576 55.1092C21.6251 54.7138 21.0785 54.3217 20.318 53.9396" fill="#B78F62"/>
<path id="Vector_5" d="M30.0852 55.9232C30.0194 55.9232 29.9667 56.0196 29.9272 56.2189C29.8218 56.7406 29.6737 57.1892 29.4827 57.5613C29.2917 57.9334 29.0218 58.2258 28.6761 58.4385C28.3271 58.6511 27.9419 58.7574 27.5237 58.7574C26.7072 58.7574 26.0487 58.4318 25.5582 57.7773C24.9919 57.0263 24.7087 55.9664 24.7087 54.6041C24.7087 53.0757 25.0512 51.9161 25.7393 51.1253C26.1212 50.6834 26.6381 50.4641 27.2933 50.4641C28.1427 50.4641 28.765 50.7898 29.1633 51.4443C29.3576 51.7633 29.509 52.2484 29.6111 52.903C29.6342 53.0591 29.6868 53.1355 29.7691 53.1355C29.8086 53.1355 29.8416 53.1222 29.8679 53.099C29.891 53.0757 29.9041 52.986 29.9041 52.8299C29.9041 51.75 29.9469 51.0157 30.0391 50.6236C30.0556 50.5505 30.0622 50.4974 30.0622 50.4641C30.0622 50.3977 30.0292 50.3678 29.9634 50.3678C29.8975 50.3678 29.8119 50.4808 29.7099 50.71C29.644 50.8396 29.5749 50.9061 29.5025 50.9061C29.4136 50.9061 29.2786 50.8529 29.1008 50.7466C28.7353 50.5339 28.4324 50.3944 28.1855 50.3246C27.9386 50.2548 27.6093 50.2216 27.1945 50.2216C26.0619 50.2216 25.1368 50.627 24.419 51.441C23.7013 52.255 23.3457 53.3017 23.3457 54.5842C23.3457 55.8667 23.7375 56.9134 24.5178 57.7507C25.2981 58.588 26.2858 59.0066 27.4743 59.0066C28.2909 59.0066 28.9921 58.7508 29.5749 58.2358C29.6868 58.3022 29.8021 58.4783 29.914 58.7641C29.9634 58.887 30.0194 58.9468 30.0852 58.9468C30.1511 58.9468 30.1807 58.8937 30.1807 58.7873V58.6777C30.1807 58.465 30.1741 58.2823 30.1576 58.1328C30.1412 57.9833 30.1346 57.8769 30.1346 57.8205C30.1346 57.3619 30.1511 56.9067 30.184 56.4482C30.2004 56.2189 30.207 56.1093 30.207 56.1159C30.207 55.993 30.1675 55.9332 30.0852 55.9332" fill="#B78F62"/>
<path id="Vector_6" d="M43.3698 50.8263C42.9417 50.5007 42.2635 50.3346 41.3416 50.3346H38.6715C38.4444 50.3346 38.3324 50.3711 38.3324 50.4442C38.3324 50.5107 38.3917 50.5439 38.5135 50.5439H38.7209C38.9217 50.5439 39.0633 50.5605 39.1456 50.5937C39.2839 50.6502 39.353 50.8064 39.353 51.0589V58.2989C39.3465 58.4285 39.307 58.5116 39.2444 58.5448C39.1884 58.6179 38.9678 58.6544 38.5892 58.6544C38.5234 58.6544 38.474 58.6611 38.4345 58.6677C38.3917 58.6611 38.3423 58.6578 38.2863 58.6544C37.9702 58.6445 37.7628 58.6179 37.6608 58.5647C37.5587 58.5149 37.4764 58.3953 37.4105 58.2125C36.2516 55.0261 35.5273 53.0359 35.2376 52.2451C34.8655 51.2317 34.6252 50.5672 34.5198 50.2482C34.5034 50.1983 34.4836 50.1751 34.4606 50.1751C34.4211 50.1751 34.3881 50.2216 34.3651 50.3113L34.3124 50.5339C34.2564 50.6535 34.2169 50.7632 34.2005 50.8595C33.5453 52.687 32.6991 55.1092 31.6588 58.1261C31.5929 58.3222 31.504 58.4551 31.3921 58.5249C31.2801 58.5946 31.0958 58.6345 30.8389 58.6412C30.5854 58.6478 30.457 58.691 30.457 58.7641C30.457 58.8372 30.513 58.8737 30.6282 58.8737C30.6677 58.8737 30.7204 58.8671 30.7863 58.8538C30.9081 58.8272 31.0332 58.8139 31.1616 58.8139C31.29 58.8139 31.4151 58.8173 31.5369 58.8272C32.0308 58.8604 32.4654 58.8771 32.8374 58.8771C33.0481 58.8771 33.1535 58.8372 33.1535 58.7541C33.1535 58.681 33.035 58.6412 32.8012 58.6312C32.4193 58.6079 32.2185 58.5913 32.1954 58.5813C32.0999 58.5581 32.0505 58.4883 32.0505 58.372C32.0505 58.176 32.2942 57.4251 32.7782 56.1159H35.3726C35.6557 56.9832 35.8335 57.5414 35.9059 57.7972L35.9685 57.9667L36.0673 58.2923C36.0837 58.3488 36.0936 58.382 36.0936 58.3886C36.0936 58.5249 35.738 58.598 35.0236 58.6046C34.8063 58.6046 34.6943 58.6511 34.6943 58.7475C34.6943 58.8339 34.7766 58.8771 34.938 58.8771C35.0038 58.8771 35.0631 58.8737 35.119 58.8638L36.6599 58.8139L38.2007 58.8638C38.2666 58.8704 38.339 58.8771 38.418 58.8771C38.4707 58.8771 38.5069 58.8704 38.5365 58.8571C38.5826 58.8638 38.6353 58.8638 38.6979 58.8638H41.4898C41.6017 58.8638 41.661 58.8239 41.661 58.7408C41.661 58.6843 41.6149 58.6544 41.526 58.6544C41.3087 58.6544 41.0816 58.6378 40.8445 58.6046C40.7062 58.5813 40.6173 58.5116 40.5778 58.3953C40.5614 58.3454 40.5548 58.2291 40.5548 58.0398V54.561C40.9038 54.6174 41.2132 54.6473 41.4898 54.6473C42.1384 54.6473 42.6718 54.5078 43.0932 54.232C43.7648 53.7901 44.1007 53.1754 44.1007 52.3813C44.1007 51.7101 43.857 51.1918 43.3731 50.8263M32.8407 55.8368C33.3148 54.3915 33.7231 53.2186 34.0589 52.3149L34.6417 54.0127C34.9445 54.86 35.1651 55.468 35.2968 55.8335H32.8407V55.8368ZM42.1318 54.0327C41.7598 54.2719 41.3054 54.3915 40.7721 54.3915C40.6898 54.3915 40.6173 54.3882 40.5548 54.3782V51.0988C40.5548 50.8928 40.5778 50.7665 40.6272 50.7167C40.7326 50.6004 40.9564 50.5439 41.2956 50.5439C42.3162 50.5439 42.8265 51.1619 42.8265 52.3946C42.8265 53.192 42.596 53.7403 42.1351 54.036" fill="#B78F62"/>
<path id="Vector_7" d="M57.2117 50.6436C56.6059 50.4376 55.5721 50.3346 54.1169 50.3346H52.0032C51.8649 50.3346 51.7958 50.3678 51.7958 50.4342C51.7958 50.524 51.8879 50.5705 52.0756 50.5705C52.4312 50.5705 52.6419 50.6037 52.7012 50.6668C52.7604 50.7333 52.7933 50.9659 52.7933 51.3646V57.97C52.7933 58.2225 52.7769 58.3787 52.744 58.4351C52.6616 58.5581 52.4575 58.6179 52.125 58.6179C51.9637 58.6179 51.855 58.6312 51.7925 58.6611C51.7661 58.6611 51.7398 58.6578 51.7101 58.6544C51.3941 58.6445 51.1867 58.6179 51.0846 58.5647C50.9825 58.5149 50.9002 58.3953 50.8344 58.2125C49.6755 55.0261 48.9511 53.0392 48.6614 52.2451C48.2894 51.2317 48.049 50.5672 47.9437 50.2482C47.9272 50.1983 47.9074 50.1751 47.8844 50.1751C47.8449 50.1751 47.812 50.2216 47.7889 50.3113L47.7362 50.5339C47.6803 50.6535 47.6408 50.7632 47.6243 50.8595C46.9691 52.687 46.123 55.1092 45.0826 58.1261C45.0167 58.3222 44.9278 58.4551 44.8159 58.5249C44.704 58.5946 44.5196 58.6345 44.2628 58.6412C44.0093 58.6478 43.8809 58.691 43.8809 58.7641C43.8809 58.8372 43.9368 58.8737 44.0521 58.8737C44.0916 58.8737 44.1443 58.8671 44.2101 58.8538C44.3319 58.8272 44.457 58.8139 44.5854 58.8139C44.7138 58.8139 44.8389 58.8173 44.9608 58.8272C45.4546 58.8604 45.8892 58.8771 46.2613 58.8771C46.472 58.8771 46.5773 58.8372 46.5773 58.7541C46.5773 58.681 46.4588 58.6412 46.225 58.6312C45.8431 58.6079 45.6423 58.5913 45.6192 58.5813C45.5238 58.5581 45.4744 58.4883 45.4744 58.372C45.4744 58.176 45.718 57.4251 46.202 56.1159H48.7964C49.0795 56.9832 49.2573 57.5414 49.3298 57.7972L49.3923 57.97L49.4911 58.2956C49.5075 58.3521 49.5174 58.3853 49.5174 58.392C49.5174 58.5282 49.1618 58.6013 48.4474 58.6079C48.2301 58.6079 48.1182 58.6544 48.1182 58.7508C48.1182 58.8372 48.2005 58.8804 48.3618 58.8804C48.4276 58.8804 48.4869 58.8771 48.5429 58.8671L50.0837 58.8173L51.6245 58.8671C51.6904 58.8737 51.7628 58.8804 51.8418 58.8804C51.9011 58.8804 51.9439 58.8704 51.9735 58.8571H55.2528C56.4742 58.8571 57.4521 58.5614 58.1797 57.9733C59.174 57.1692 59.6744 56.0495 59.6744 54.6075C59.6744 53.6638 59.4472 52.8332 58.9929 52.1055C58.5385 51.3812 57.9459 50.8961 57.2084 50.6502M46.2678 55.8368C46.7419 54.3915 47.1502 53.2186 47.486 52.3149L48.0688 54.0127C48.3717 54.86 48.5923 55.468 48.724 55.8335H46.2678V55.8368ZM57.4685 57.661C56.9352 58.2823 56.2306 58.5946 55.3548 58.5946C54.7326 58.5946 54.3243 58.5448 54.13 58.4484C54.0741 58.4152 54.0379 58.3753 54.028 58.3255C54.0148 58.2757 54.0115 58.1361 54.0115 57.9068V51.3679C54.0115 51.0323 54.0346 50.8363 54.084 50.7798C54.1959 50.6635 54.5251 50.607 55.0684 50.607C56.1845 50.607 57.0076 50.926 57.5344 51.5606C58.0612 52.1952 58.3245 53.192 58.3245 54.5543C58.3245 55.9166 58.0414 57.0097 57.4751 57.6643" fill="#B78F62"/>
<path id="Vector_8" d="M66.8782 56.621C66.7893 56.621 66.7366 56.7207 66.7201 56.9234C66.6477 57.8338 66.3448 58.3521 65.8082 58.4717C65.502 58.5448 64.455 58.5813 62.6771 58.5813V54.4779H63.2203C63.8327 54.4779 64.2114 54.5011 64.3562 54.551C64.6855 54.664 64.883 54.963 64.9488 55.4448C64.9982 55.8302 65.0312 56.0561 65.0509 56.1259C65.0707 56.1957 65.1102 56.2289 65.1661 56.2289C65.255 56.2289 65.2978 56.1758 65.2978 56.0694C65.2978 56.0129 65.2978 55.9432 65.288 55.8601C65.2616 55.5345 65.2484 54.9331 65.2484 54.0592C65.2484 53.913 65.255 53.6971 65.2715 53.4113C65.288 53.1256 65.2945 52.9096 65.2945 52.7634C65.2945 52.6172 65.2485 52.5441 65.1596 52.5441C65.0871 52.5441 65.041 52.6305 65.0246 52.8C64.9521 53.4711 64.8171 53.8732 64.6163 54.0127C64.4188 54.1523 63.8656 54.2221 62.9602 54.2221H62.6705V50.6203H63.6648C64.7645 50.6203 65.446 50.6934 65.7061 50.8429C66.0551 51.039 66.3053 51.5075 66.46 52.2484C66.4996 52.4544 66.5654 52.5574 66.6543 52.5574C66.7267 52.5574 66.7629 52.5175 66.7629 52.4345C66.7629 52.368 66.7597 52.3149 66.7498 52.275L66.7004 51.7467C66.6444 51.1254 66.6082 50.6403 66.5917 50.2881C66.3909 50.3213 66.167 50.3379 65.9234 50.3379H60.7741C60.5963 50.3379 60.5074 50.3711 60.5074 50.4409C60.5074 50.5107 60.5733 50.5439 60.7017 50.5439C61.0737 50.5439 61.2943 50.5672 61.3634 50.6104C61.4326 50.6569 61.4655 50.7964 61.4655 51.0356V57.9434C61.4655 58.2557 61.4425 58.4484 61.3997 58.5215C61.3536 58.5946 61.2285 58.6412 61.0177 58.6578C60.7346 58.681 60.5798 58.691 60.5568 58.691C60.5074 58.6976 60.4844 58.7242 60.4844 58.7674C60.4844 58.8339 60.5601 58.8671 60.7148 58.8671H62.2326C64.5801 58.8671 66.1506 58.8903 66.944 58.9402V58.5348C66.944 58.1992 66.9506 57.847 66.9671 57.4816C66.9835 57.1127 66.9901 56.9134 66.9901 56.8802C66.9901 56.7074 66.9506 56.6243 66.8683 56.6243" fill="#B78F62"/>
<path id="Vector_9" d="M34.836 0C33.4828 0 32.1593 0.12626 30.8752 0.368812C24.0073 4.0071 19.3223 11.2737 19.3223 19.6434C19.3223 31.658 28.9722 41.4 40.8808 41.4C42.234 41.4 36.6468 37.4627 37.9308 37.2235C41.0586 35.5688 50.6427 36.9709 52.628 34.047C55.0051 30.5516 56.3945 26.3186 56.3945 21.7599C56.3945 9.73864 46.7412 0 34.836 0Z" fill="#DFDFDF"/>
<path id="Vector_10" d="M45.6384 36.4493C53.0561 35.8844 57.886 35.5156 57.9157 35.0073C57.9453 34.4956 53.1253 33.2529 47.3504 33.0868C40.4101 32.8874 35.4978 34.3427 26.5458 35.8878C22.1143 31.9039 19.3224 26.0993 19.3224 19.6401C19.3224 11.2704 24.0074 4.00376 30.8753 0.365479C20.8599 2.24277 13.2775 11.1042 13.2775 21.7533C13.2775 27.6908 15.6349 33.0735 19.4573 36.9975C19.3948 37.0075 19.3355 37.0141 19.273 37.0241C10.0477 38.403 8.99086 38.5591 8.99415 38.7519C9.00732 39.4795 22.5851 39.6656 22.6049 40.3833C22.6213 41.0013 12.8825 41.3934 12.8956 42.0147C12.9154 42.8121 29.0085 42.5961 29.0744 43.8388C29.1205 44.7027 16.0366 44.0315 17.8441 46.0484C18.3676 46.6331 47.0706 46.3441 47.064 45.1845C47.0607 44.5299 41.9081 43.7292 41.9246 43.0713C41.9542 41.9516 55.7361 41.3967 55.7262 40.9581C55.7164 40.5693 42.6127 40.7222 42.5929 40.1906C42.5732 39.6656 55.1698 39.0044 55.1567 38.2701C55.1402 37.5358 42.5863 37.3165 42.5929 36.8281C42.5929 36.6619 44.0383 36.5656 45.6384 36.4426M26.5919 35.9309C26.8059 35.8977 26.8389 35.8944 26.5919 35.9309V35.9309Z" fill="#D6D3D2"/>
<path id="Vector_11" d="M41.4508 25.2121L53.7281 32.3193L54.031 31.6979C54.031 31.6979 43.9266 25.7903 41.8327 24.6373C41.7372 24.0625 41.0721 23.388 40.6902 23.0059C40.3083 22.6205 39.9297 21.5639 39.6433 20.9891C39.3568 20.4143 37.1674 18.012 37.1674 18.012L37.2629 17.3408C38.1189 16.4769 37.7403 15.7094 37.6448 15.1313C37.5493 14.5565 35.8373 13.6892 35.0734 14.6495C34.3129 15.6097 34.787 16.57 34.9779 17.3375C35.0734 18.3941 34.5006 18.2977 33.74 18.2977C32.9795 18.2977 31.9325 18.8726 31.9325 18.8726L28.9825 17.1448C28.5051 15.8955 27.6491 16.3773 27.6491 16.3773L25.7461 15.2243L25.3642 15.7991L27.5536 17.0484L27.2672 18.4904C27.2672 18.4904 26.9807 19.7398 27.1717 20.1219C29.3611 23.0989 31.7415 21.8496 31.7415 21.8496L31.2641 26.5545C29.0747 25.1125 26.0292 24.3449 26.0292 24.3449V22.8066L25.4597 22.1354L24.5082 22.5208L24.7946 30.4918L23.9386 24.634L20.0371 30.4918C21.466 41.0578 29.292 42.7224 40.3807 39.6822C52.5395 34.7514 44.9736 30.9736 44.9736 30.9736L40.6902 32.512C43.3538 34.4324 44.1176 34.0503 45.7342 33.5686C43.6402 36.5456 38.3098 31.5517 38.3098 31.5517L38.2144 24.2519L38.4053 23.6771C39.9297 25.8866 41.4508 25.2155 41.4508 25.2155M29.269 19.6434L28.6039 18.105L28.8903 17.9123L31.3662 19.258L29.2722 19.6434H29.269Z" fill="#B78F62"/>
</g>
<defs>
<clipPath id="clip0_427_501">
<rect width="67" height="59" fill="white"/>
</clipPath>
</defs>
</svg>
