<svg width="230" height="50" viewBox="0 0 230 50" fill="none" xmlns="http://www.w3.org/2000/svg">
<path id="Vector" d="M230 1.22959C172.3 0.912928 74.9546 0.254983 18.2198 0.0519473C4.57582 -1.1975 -4.66984 20.328 2.48145 37.2007C5.67205 44.9463 11.9307 49.4455 18.1384 48.9076C20.3981 48.9057 26.7355 48.9341 29.0921 48.9325C38.5061 48.9529 91.5424 49.0873 102.121 49.1057L218.968 49.2451L102.124 48.5258C91.218 48.4807 38.7874 48.2038 29.0949 48.1632C26.749 48.1443 20.425 48.1262 18.1414 48.1076C12.1073 48.6154 6.07411 44.2732 2.98412 36.7571C-3.88528 20.432 4.99009 -0.346037 18.2169 0.851949C74.5977 0.974327 172.751 1.20899 230 1.22959Z" fill="white"/>
</svg>
