<svg width="35" height="35" viewBox="0 0 35 35" fill="none" xmlns="http://www.w3.org/2000/svg">
<g id="ix:e-mail-filled">
<path id="Vector" fill-rule="evenodd" clip-rule="evenodd" d="M5.15146 4.375L16.0428 13.7532L26.9341 4.375H5.15146ZM2.91871 4.375H2.917V4.37705L2.91871 4.375ZM2.917 6.3V24.7917H14.6112C14.5928 24.5491 14.5836 24.3058 14.5836 24.0625C14.5836 18.8273 18.8276 14.5833 24.0628 14.5833C25.9421 14.5833 27.6936 15.1302 29.167 16.0735V6.3013L16.0428 17.6027L2.917 6.3ZM29.167 4.3752V4.375H29.1668L29.167 4.3752ZM27.9473 29.7698L28.2517 31.4583C26.9849 31.875 25.6936 32.0833 24.3777 32.0833C21.9561 32.0833 19.9859 31.3779 18.4671 29.9671C16.8504 28.4759 16.042 26.5022 16.042 24.046C16.042 21.7288 16.8084 19.8245 18.3411 18.3333C19.9229 16.8056 21.9281 16.0417 24.3568 16.0417C26.5545 16.0417 28.3707 16.6338 29.8055 17.818C30.5194 18.4101 31.0758 19.1374 31.4747 20C31.8807 20.8918 32.0836 21.875 32.0836 22.9495C32.0836 24.6528 31.6112 26.0124 30.6663 27.0285C29.8195 27.9349 28.8641 28.3881 27.8003 28.3881C26.6664 28.3881 26.0435 27.8728 25.9316 26.8421C25.2316 27.8728 24.2868 28.3881 23.097 28.3881C22.1381 28.3881 21.3787 28.1104 20.8187 27.5548C20.2099 26.9554 19.9054 26.133 19.9054 25.0877C19.9054 24.3932 20.0436 23.7116 20.3201 23.0428C20.5966 22.3739 20.9798 21.7946 21.4697 21.3048C22.4005 20.3765 23.5974 19.9123 25.0602 19.9123C26.166 19.9123 27.1983 20.0914 28.1572 20.4496L27.4538 25.011C27.3838 25.4569 27.3488 25.7821 27.3488 25.9868C27.3488 26.4912 27.5623 26.7434 27.9892 26.7434C28.5491 26.7434 29.0496 26.4035 29.4905 25.7237C30.0294 24.8976 30.2989 23.9181 30.2989 22.7851C30.2989 21.228 29.774 20.0146 28.7241 19.1447C27.5623 18.1871 26.1205 17.7084 24.3987 17.7084C23.0689 17.7084 21.8581 18.0373 20.7663 18.6952C19.7374 19.3165 18.964 20.1571 18.4461 21.2171C18.0332 22.0797 17.8267 23.0373 17.8267 24.0899C17.8267 26.0855 18.5196 27.6682 19.9054 28.8377C21.1232 29.8684 22.67 30.3838 24.5458 30.3838C25.6166 30.3838 26.7504 30.1791 27.9473 29.7698ZM25.963 21.5899C25.6061 21.4875 25.3156 21.4364 25.0917 21.4364C24.6927 21.4364 24.2973 21.5406 23.9053 21.7489C23.5134 21.9572 23.1774 22.2442 22.8975 22.6097C22.3235 23.3479 22.0366 24.1739 22.0366 25.0877C22.0366 25.5994 22.1626 26.0033 22.4145 26.2994C22.6665 26.5954 23.0095 26.7434 23.4434 26.7434C24.0733 26.7434 24.5947 26.4729 25.0077 25.932C25.2246 25.6542 25.3961 25.1169 25.5221 24.3201L25.963 21.5899Z" fill="white"/>
</g>
</svg>
