<svg width="252" height="43" viewBox="0 0 252 43" fill="none" xmlns="http://www.w3.org/2000/svg">
<path id="Vector" d="M252 41.5947C186.218 41.8776 101.998 41.9255 36.3103 42.0061C33.5123 41.9843 26.6045 42.0594 23.8456 41.9952C16.7714 41.7396 9.93868 38.8243 5.5222 34.1842C-6.15284 22.2948 1.68496 3.67832 19.6511 0.518389C24.3612 -0.352232 31.455 0.165768 36.3103 0.0427601C77.1485 0.0851294 144.691 0.180806 185.637 0.224542C185.632 0.224542 252 0.45962 252 0.45962L185.632 0.689233C144.588 0.75757 77.2252 0.810876 36.3103 0.875113C31.5692 1.01452 24.4885 0.507455 19.8746 1.37261C2.72427 4.42046 -4.73824 22.2361 6.36414 33.6129C10.5767 38.0712 17.1141 40.8799 23.8962 41.141C26.5344 41.1888 33.5384 41.1683 36.3103 41.1792C101.959 41.264 186.275 41.3009 252 41.5947Z" fill="white"/>
</svg>
