<svg width="259" height="39" viewBox="0 0 259 39" fill="none" xmlns="http://www.w3.org/2000/svg">
<path id="Vector" d="M259 38.0083C193.998 38.0906 84.336 38.3263 20.4232 38.3223C5.04798 39.2621 -5.27834 22.3674 2.84736 9.16591C6.4736 3.10534 13.5426 -0.402425 20.5334 0.0369212C23.0789 0.0449458 30.2181 0.0409269 32.8729 0.0489515C43.4779 0.0599853 103.224 0.107135 115.141 0.123184L246.77 0.349892L115.141 0.57758C102.856 0.581592 43.7917 0.6478 32.8729 0.651812C30.2301 0.659837 23.106 0.655818 20.5334 0.663843C13.7381 0.24857 6.92374 3.63395 3.41179 9.51498C-4.3941 22.2881 5.51817 38.5961 20.4232 37.6953C83.937 37.7615 194.508 37.8599 259 38.0083Z" fill="white"/>
</svg>
