<svg width="300" height="263" viewBox="0 0 300 263" fill="none" xmlns="http://www.w3.org/2000/svg">
<g id="Layer_1" clip-path="url(#clip0_568_819)">
<path id="Vector" d="M28.0245 252.454C27.6412 252.454 27.4348 252.691 27.4053 253.165C27.3022 255.209 26.9336 256.824 26.3144 258.023C25.6953 259.223 24.5159 260.038 22.7764 260.482C21.0368 260.926 18.0442 261.134 13.8132 261.134C12.0737 261.134 10.7174 261.119 9.72967 261.075V228.846C9.72967 227.246 9.83287 226.283 10.0245 225.972C10.2162 225.661 10.8501 225.484 11.8967 225.454C12.9434 225.424 13.5773 225.365 13.769 225.321C13.9606 225.261 14.0638 225.128 14.0638 224.906C14.0638 224.536 13.7395 224.358 13.0909 224.358H12.4864C11.8673 224.358 11.0859 224.388 10.1424 224.447C9.19896 224.506 8.56505 224.536 8.24073 224.536C4.6879 224.536 2.31444 224.476 1.12034 224.373H0.63385C0.191589 224.373 -0.014799 224.536 -0.014799 224.862C-0.014799 225.261 0.324267 225.469 1.01714 225.469C2.68299 225.469 3.65596 225.572 3.92132 225.795C4.18667 226.017 4.3341 226.802 4.3341 228.15V258.853C4.3341 259.979 4.20142 260.66 3.92132 260.897C3.65596 261.134 2.83041 261.282 1.44466 261.356C0.471687 261.43 -0.029541 261.593 -0.029541 261.845C-0.029541 262.171 0.280041 262.333 0.899206 262.333L23.4692 262.496C24.5159 262.496 25.4594 262.526 26.285 262.6C27.1105 262.674 27.6412 262.704 27.8623 262.704H28.452C28.5552 260.527 28.6142 258.957 28.6142 258.009V253.254C28.6437 252.706 28.4373 252.44 27.995 252.44" fill="white"/>
<path id="Vector_2" d="M35.8231 223.825C34.8501 223.825 34.0246 224.151 33.3465 224.787C32.6683 225.424 32.344 226.194 32.344 227.113C32.344 227.883 32.6093 228.52 33.1253 229.053C33.656 229.586 34.3194 229.853 35.1155 229.853C36.6781 229.853 37.4595 229.231 37.4595 228.001C37.9312 228.698 38.1671 229.527 38.1671 230.519C38.1671 231.763 37.8428 232.711 37.1941 233.363C36.5455 234.015 35.3808 234.578 33.715 235.051C33.2875 235.155 33.0664 235.348 33.0664 235.6C33.0664 235.896 33.258 236.029 33.6708 236.029C34.6437 236.029 35.8673 235.614 37.3121 234.77C39.4202 233.57 40.4668 231.645 40.4668 228.979C40.4668 227.483 40.0246 226.254 39.1548 225.291C38.285 224.328 37.1794 223.84 35.8379 223.84" fill="white"/>
<path id="Vector_3" d="M73.4447 252.395C73.0466 252.395 72.8108 252.84 72.7371 253.743C72.4127 257.801 71.0565 260.112 68.6535 260.645C67.2825 260.971 62.5945 261.134 54.6339 261.134V242.842H57.0663C59.8083 242.842 61.5036 242.946 62.1523 243.168C63.6265 243.672 64.511 245.005 64.8058 247.152C65.027 248.87 65.1744 249.877 65.2628 250.188C65.3513 250.499 65.5282 250.648 65.7788 250.648C66.1769 250.648 66.3685 250.411 66.3685 249.937C66.3685 249.685 66.3685 249.374 66.3243 249.004C66.2063 247.552 66.1474 244.871 66.1474 240.976C66.1474 240.324 66.1769 239.362 66.2506 238.088C66.3243 236.814 66.3538 235.851 66.3538 235.2C66.3538 234.548 66.1474 234.222 65.7493 234.222C65.425 234.222 65.2186 234.607 65.1449 235.363C64.8206 238.354 64.2162 240.147 63.3169 240.769C62.4324 241.391 59.9557 241.702 55.9017 241.702H54.6044V225.647H59.0565C63.9803 225.647 67.0319 225.972 68.1965 226.639C69.7592 227.513 70.8796 229.601 71.5724 232.904C71.7493 233.822 72.0442 234.281 72.4422 234.281C72.7665 234.281 72.9287 234.104 72.9287 233.733C72.9287 233.437 72.914 233.2 72.8697 233.022L72.6486 230.667C72.398 227.898 72.2358 225.735 72.1621 224.165C71.2628 224.314 70.2604 224.388 69.1695 224.388H46.113C45.3169 224.388 44.9189 224.536 44.9189 224.847C44.9189 225.158 45.2137 225.306 45.7886 225.306C47.4545 225.306 48.4422 225.41 48.7518 225.602C49.0614 225.809 49.2088 226.431 49.2088 227.498V258.29C49.2088 259.682 49.1056 260.541 48.914 260.867C48.7076 261.193 48.1474 261.4 47.2039 261.474C45.9361 261.578 45.2432 261.623 45.14 261.623C44.9189 261.652 44.8157 261.771 44.8157 261.963C44.8157 262.259 45.1547 262.408 45.8476 262.408H52.6437C63.1547 262.408 70.1867 262.511 73.7395 262.733V260.926C73.7395 259.431 73.769 257.861 73.8427 256.231C73.9164 254.587 73.9459 253.699 73.9459 253.551C73.9459 252.78 73.769 252.41 73.4004 252.41" fill="white"/>
<path id="Vector_4" d="M91.0025 240.443C88.0983 238.991 86.2113 237.851 85.3415 237.051C83.7789 235.629 82.9976 233.748 82.9976 231.423C82.9976 229.423 83.5283 227.839 84.6044 226.668C85.6659 225.498 87.1106 224.921 88.9238 224.921C90.7371 224.921 92.4324 225.647 93.9214 227.083C95.4103 228.52 96.3538 230.312 96.7519 232.46C96.8993 233.304 97.1646 233.719 97.5627 233.719C97.9312 233.719 98.0934 233.526 98.0492 233.111L97.9902 232.237C97.8133 231.215 97.7248 229.838 97.7248 228.09C97.7248 226.846 97.7838 225.795 97.887 224.921C97.9165 224.773 97.946 224.55 97.946 224.269C97.946 223.825 97.7691 223.617 97.4005 223.617C97.0762 223.617 96.8698 223.795 96.7961 224.165C96.6929 224.787 96.5749 225.173 96.4423 225.306C96.3096 225.454 96.059 225.528 95.6609 225.528C95.2924 225.528 94.7322 225.38 93.9804 225.098C91.7985 224.254 90.1032 223.84 88.8649 223.84C85.887 223.84 83.4398 224.817 81.4939 226.787C79.5479 228.757 78.5897 231.245 78.5897 234.267C78.5897 236.636 79.2531 238.621 80.5946 240.221C81.9361 241.82 84.3243 243.479 87.774 245.197C90.6339 246.619 92.6536 248.041 93.8329 249.477C95.0123 250.914 95.602 252.662 95.602 254.691C95.602 256.987 94.9976 258.764 93.774 260.023C92.5651 261.282 90.8403 261.904 88.629 261.904C83.4398 261.904 80.3882 258.631 79.4447 252.084C79.2973 251.196 79.0467 250.766 78.6781 250.766C78.2359 250.766 78.0295 251.033 78.0295 251.581C78.0295 251.951 78.0442 252.232 78.0885 252.455C78.1622 254.128 78.1917 255.15 78.1917 255.52C78.1917 257.416 78.0442 259.475 77.7494 261.697C77.7199 261.845 77.6904 262.067 77.6904 262.348C77.6904 262.778 77.8673 263 78.2359 263C78.6781 263 78.914 262.733 78.9435 262.215C79.0467 261.208 79.3268 260.704 79.7543 260.704C80.1229 260.704 80.6536 260.867 81.3907 261.193C84.1032 262.393 86.4472 263 88.4079 263C91.7396 263 94.5995 261.904 96.973 259.697C99.3464 257.49 100.541 254.824 100.541 251.699C100.541 249.448 99.8035 247.434 98.3145 245.656C96.8256 243.894 94.3784 242.146 90.973 240.443" fill="white"/>
<path id="Vector_5" d="M134.713 249.285C134.418 249.285 134.182 249.714 134.005 250.603C133.533 252.928 132.87 254.928 132.015 256.587C131.16 258.246 129.951 259.549 128.403 260.497C126.84 261.445 125.115 261.919 123.243 261.919C119.587 261.919 116.639 260.467 114.442 257.549C111.907 254.202 110.639 249.477 110.639 243.405C110.639 236.592 112.172 231.423 115.253 227.898C116.963 225.928 119.278 224.95 122.211 224.95C126.015 224.95 128.801 226.402 130.585 229.32C131.455 230.741 132.133 232.904 132.59 235.822C132.693 236.518 132.929 236.858 133.297 236.858C133.474 236.858 133.622 236.799 133.74 236.696C133.843 236.592 133.902 236.192 133.902 235.496C133.902 230.682 134.093 227.409 134.506 225.661C134.58 225.335 134.609 225.098 134.609 224.95C134.609 224.654 134.462 224.521 134.167 224.521C133.872 224.521 133.489 225.024 133.032 226.046C132.737 226.624 132.428 226.92 132.103 226.92C131.705 226.92 131.101 226.683 130.305 226.209C128.668 225.261 127.312 224.639 126.206 224.328C125.101 224.017 123.627 223.869 121.769 223.869C116.698 223.869 112.555 225.676 109.342 229.305C106.128 232.934 104.536 237.599 104.536 243.316C104.536 249.033 106.29 253.699 109.784 257.431C113.278 261.163 117.7 263.03 123.022 263.03C126.678 263.03 129.818 261.889 132.428 259.593C132.929 259.89 133.445 260.675 133.946 261.948C134.167 262.496 134.418 262.763 134.713 262.763C135.007 262.763 135.14 262.526 135.14 262.052V261.563C135.14 260.615 135.111 259.801 135.037 259.134C134.963 258.468 134.934 257.994 134.934 257.742C134.934 255.698 135.007 253.669 135.155 251.625C135.229 250.603 135.258 250.114 135.258 250.144C135.258 249.596 135.081 249.329 134.713 249.329" fill="white"/>
<path id="Vector_6" d="M194.197 226.565C192.28 225.113 189.243 224.373 185.116 224.373H173.16C172.143 224.373 171.641 224.536 171.641 224.862C171.641 225.158 171.907 225.306 172.452 225.306H173.381C174.28 225.306 174.914 225.38 175.283 225.528C175.902 225.78 176.211 226.476 176.211 227.602V259.875C176.182 260.452 176.005 260.823 175.725 260.971C175.474 261.297 174.487 261.46 172.791 261.46C172.496 261.46 172.275 261.489 172.098 261.519C171.907 261.489 171.686 261.474 171.435 261.46C170.02 261.415 169.091 261.297 168.634 261.06C168.177 260.838 167.808 260.304 167.514 259.49C162.324 245.286 159.081 236.414 157.784 232.889C156.118 228.372 155.042 225.41 154.57 223.988C154.496 223.765 154.408 223.662 154.305 223.662C154.128 223.662 153.98 223.869 153.877 224.269L153.641 225.261C153.391 225.795 153.214 226.283 153.14 226.713C150.206 234.859 146.418 245.656 141.759 259.105C141.464 259.979 141.066 260.571 140.565 260.882C140.064 261.193 139.238 261.371 138.088 261.4C136.953 261.43 136.378 261.623 136.378 261.948C136.378 262.274 136.629 262.437 137.145 262.437C137.322 262.437 137.558 262.408 137.853 262.348C138.398 262.23 138.958 262.171 139.533 262.171C140.108 262.171 140.668 262.185 141.214 262.23C143.425 262.378 145.371 262.452 147.037 262.452C147.98 262.452 148.452 262.274 148.452 261.904C148.452 261.578 147.921 261.4 146.875 261.356C145.165 261.252 144.265 261.178 144.162 261.134C143.735 261.03 143.514 260.719 143.514 260.201C143.514 259.327 144.604 255.98 146.772 250.144H158.388C159.656 254.01 160.452 256.498 160.776 257.638L161.057 258.394L161.499 259.845C161.573 260.097 161.617 260.245 161.617 260.275C161.617 260.882 160.025 261.208 156.826 261.237C155.853 261.237 155.351 261.445 155.351 261.874C155.351 262.259 155.72 262.452 156.442 262.452C156.737 262.452 157.002 262.437 157.253 262.393L164.152 262.171L171.052 262.393C171.346 262.422 171.671 262.452 172.025 262.452C172.26 262.452 172.423 262.422 172.555 262.363C172.762 262.393 172.998 262.393 173.278 262.393H185.779C186.28 262.393 186.545 262.215 186.545 261.845C186.545 261.593 186.339 261.46 185.941 261.46C184.968 261.46 183.951 261.386 182.889 261.237C182.27 261.134 181.872 260.823 181.695 260.304C181.622 260.082 181.592 259.564 181.592 258.72V243.212C183.155 243.464 184.541 243.597 185.779 243.597C188.683 243.597 191.071 242.975 192.958 241.746C195.966 239.776 197.469 237.036 197.469 233.496C197.469 230.505 196.378 228.194 194.211 226.565M147.052 248.9C149.174 242.457 151.002 237.229 152.506 233.2L155.116 240.769C156.472 244.545 157.459 247.256 158.049 248.885H147.052V248.9ZM188.654 240.857C186.988 241.924 184.953 242.457 182.565 242.457C182.197 242.457 181.872 242.442 181.592 242.398V227.779C181.592 226.861 181.695 226.298 181.916 226.076C182.388 225.558 183.391 225.306 184.909 225.306C189.479 225.306 191.764 228.061 191.764 233.556C191.764 237.11 190.732 239.554 188.668 240.872" fill="white"/>
<path id="Vector_7" d="M256.172 225.75C253.46 224.832 248.831 224.373 242.315 224.373H232.85C232.231 224.373 231.922 224.521 231.922 224.817C231.922 225.217 232.334 225.424 233.175 225.424C234.767 225.424 235.71 225.572 235.976 225.854C236.241 226.15 236.388 227.187 236.388 228.964V258.409C236.388 259.534 236.315 260.23 236.167 260.482C235.799 261.03 234.885 261.297 233.396 261.297C232.673 261.297 232.187 261.356 231.907 261.489C231.789 261.489 231.671 261.474 231.538 261.46C230.123 261.415 229.194 261.297 228.737 261.06C228.28 260.838 227.912 260.304 227.617 259.49C222.428 245.286 219.184 236.429 217.887 232.889C216.221 228.372 215.145 225.41 214.673 223.988C214.6 223.765 214.511 223.662 214.408 223.662C214.231 223.662 214.084 223.869 213.98 224.269L213.745 225.261C213.494 225.795 213.317 226.283 213.243 226.713C210.31 234.859 206.521 245.656 201.863 259.105C201.568 259.979 201.17 260.571 200.668 260.882C200.167 261.193 199.342 261.371 198.192 261.4C197.057 261.43 196.482 261.623 196.482 261.948C196.482 262.274 196.732 262.437 197.248 262.437C197.425 262.437 197.661 262.408 197.956 262.348C198.501 262.23 199.062 262.171 199.636 262.171C200.211 262.171 200.772 262.185 201.317 262.23C203.528 262.378 205.474 262.452 207.14 262.452C208.084 262.452 208.555 262.274 208.555 261.904C208.555 261.578 208.025 261.4 206.978 261.356C205.268 261.252 204.369 261.178 204.265 261.134C203.838 261.03 203.617 260.719 203.617 260.201C203.617 259.327 204.708 255.98 206.875 250.144H218.492C219.759 254.01 220.555 256.498 220.88 257.638L221.16 258.409L221.602 259.86C221.676 260.112 221.72 260.26 221.72 260.29C221.72 260.897 220.128 261.223 216.929 261.252C215.956 261.252 215.455 261.46 215.455 261.889C215.455 262.274 215.823 262.467 216.546 262.467C216.84 262.467 217.106 262.452 217.356 262.408L224.256 262.185L231.155 262.408C231.45 262.437 231.774 262.467 232.128 262.467C232.393 262.467 232.585 262.422 232.718 262.363H247.401C252.87 262.363 257.248 261.045 260.506 258.423C264.958 254.839 267.199 249.848 267.199 243.42C267.199 239.213 266.182 235.511 264.148 232.267C262.113 229.038 259.46 226.876 256.157 225.78M207.17 248.9C209.293 242.457 211.121 237.229 212.624 233.2L215.234 240.769C216.59 244.545 217.578 247.256 218.167 248.885H207.17V248.9ZM257.322 257.031C254.934 259.801 251.779 261.193 247.858 261.193C245.071 261.193 243.243 260.971 242.374 260.541C242.123 260.393 241.961 260.215 241.917 259.993C241.858 259.771 241.843 259.149 241.843 258.127V228.979C241.843 227.483 241.946 226.609 242.167 226.357C242.668 225.839 244.143 225.587 246.575 225.587C251.573 225.587 255.258 227.009 257.617 229.838C259.976 232.667 261.155 237.11 261.155 243.183C261.155 249.255 259.887 254.128 257.351 257.046" fill="white"/>
<path id="Vector_8" d="M299.455 252.395C299.057 252.395 298.821 252.84 298.747 253.743C298.423 257.801 297.066 260.112 294.664 260.645C293.293 260.971 288.605 261.134 280.644 261.134V242.842H283.076C285.818 242.842 287.514 242.946 288.162 243.168C289.636 243.672 290.521 245.005 290.816 247.152C291.037 248.87 291.184 249.877 291.273 250.188C291.361 250.499 291.538 250.648 291.789 250.648C292.187 250.648 292.379 250.411 292.379 249.937C292.379 249.685 292.379 249.374 292.334 249.004C292.216 247.552 292.157 244.871 292.157 240.976C292.157 240.324 292.187 239.362 292.261 238.088C292.334 236.814 292.364 235.851 292.364 235.2C292.364 234.548 292.157 234.222 291.759 234.222C291.435 234.222 291.229 234.607 291.155 235.363C290.831 238.354 290.226 240.147 289.327 240.769C288.442 241.391 285.966 241.702 281.912 241.702H280.614V225.647H285.066C289.99 225.647 293.042 225.972 294.207 226.639C295.769 227.513 296.89 229.601 297.582 232.904C297.759 233.822 298.054 234.281 298.452 234.281C298.777 234.281 298.939 234.104 298.939 233.733C298.939 233.437 298.924 233.2 298.88 233.022L298.659 230.667C298.408 227.898 298.246 225.735 298.172 224.165C297.273 224.314 296.27 224.388 295.179 224.388H272.123C271.327 224.388 270.929 224.536 270.929 224.847C270.929 225.158 271.224 225.306 271.799 225.306C273.464 225.306 274.452 225.41 274.762 225.602C275.071 225.809 275.219 226.431 275.219 227.498V258.29C275.219 259.682 275.116 260.541 274.924 260.867C274.718 261.193 274.157 261.4 273.214 261.474C271.946 261.578 271.253 261.623 271.15 261.623C270.929 261.652 270.826 261.771 270.826 261.963C270.826 262.259 271.165 262.408 271.858 262.408H278.654C289.165 262.408 296.197 262.511 299.75 262.733V260.926C299.75 259.431 299.779 257.861 299.853 256.231C299.926 254.587 299.956 253.699 299.956 253.551C299.956 252.78 299.779 252.41 299.41 252.41" fill="white"/>
<path id="Vector_9" d="M155.985 0C149.926 0 144 0.56282 138.251 1.64403C107.499 17.8621 86.521 50.2539 86.521 87.563C86.521 141.12 129.73 184.546 183.052 184.546C189.111 184.546 164.093 166.995 169.843 165.928C183.848 158.552 226.762 164.803 235.651 151.769C246.295 136.188 252.516 117.318 252.516 96.9976C252.516 43.4112 209.292 0 155.985 0Z" fill="#DFDFDF"/>
<path id="Vector_10" d="M204.354 162.477C237.568 159.959 259.194 158.315 259.327 156.049C259.459 153.768 237.877 148.229 212.02 147.489C180.943 146.6 158.948 153.087 118.865 159.974C99.0221 142.216 86.5209 116.341 86.5209 87.5482C86.5209 50.2391 107.499 17.8473 138.251 1.62921C93.4054 9.99746 59.4545 49.4986 59.4545 96.968C59.4545 123.435 70.0098 147.429 87.1253 164.921C86.8452 164.966 86.5798 164.995 86.2998 165.04C44.9926 171.186 40.2604 171.882 40.2752 172.741C40.3341 175.985 101.13 176.814 101.219 180.014C101.292 182.768 57.6855 184.516 57.7445 187.286C57.8329 190.84 129.892 189.878 130.187 195.417C130.393 199.268 71.8084 196.276 79.9017 205.266C82.2457 207.873 210.767 206.585 210.737 201.416C210.722 198.498 187.651 194.928 187.725 191.996C187.857 187.004 249.568 184.531 249.523 182.576C249.479 180.843 190.806 181.524 190.717 179.155C190.629 176.814 247.032 173.867 246.973 170.594C246.899 167.321 190.688 166.343 190.717 164.166C190.717 163.425 197.189 162.996 204.354 162.448M119.071 160.167C120.029 160.019 120.177 160.004 119.071 160.167V160.167Z" fill="#D6D3D2"/>
<path id="Vector_11" d="M185.602 112.386L240.575 144.067L241.931 141.298C241.931 141.298 196.688 114.963 187.312 109.824C186.885 107.262 183.907 104.255 182.197 102.552C180.487 100.834 178.791 96.1238 177.509 93.5615C176.226 90.9991 166.423 80.2907 166.423 80.2907L166.85 77.2989C170.683 73.448 168.988 70.0267 168.56 67.4496C168.133 64.8872 160.467 61.0216 157.047 65.302C153.641 69.5824 155.764 73.8627 156.619 77.2841C157.047 81.994 154.482 81.5645 151.076 81.5645C147.671 81.5645 142.983 84.1268 142.983 84.1268L129.774 76.4251C127.636 70.8561 123.804 73.0037 123.804 73.0037L115.283 67.8643L113.573 70.4266L123.376 75.9955L122.093 82.4235C122.093 82.4235 120.811 87.9925 121.666 89.6958C131.469 102.966 142.128 97.3975 142.128 97.3975L139.99 118.37C130.187 111.942 116.55 108.521 116.55 108.521V101.663L114 98.6713L109.74 100.389L111.022 135.921L107.189 109.809L89.72 135.921C96.118 183.02 131.16 190.441 180.811 176.888C235.253 154.909 201.376 138.069 201.376 138.069L182.197 144.926C194.123 153.487 197.543 151.784 204.781 149.636C195.405 162.907 171.538 140.646 171.538 140.646L171.111 108.106L171.966 105.544C178.791 115.393 185.602 112.401 185.602 112.401M131.057 87.563L128.079 80.7055L129.361 79.8464L140.447 85.8449L131.071 87.563H131.057Z" fill="#B78F62"/>
</g>
<defs>
<clipPath id="clip0_568_819">
<rect width="300" height="263" fill="white"/>
</clipPath>
</defs>
</svg>
