<svg width="259" height="39" viewBox="0 0 259 39" fill="none" xmlns="http://www.w3.org/2000/svg">
<path id="Vector" d="M259 38.0087C193.998 38.091 84.3339 38.3267 20.4204 38.3227C5.04501 39.2626 -5.27839 22.3676 2.84841 9.16602C6.47469 3.10537 13.5438 -0.40243 20.5296 0.0369216C23.0792 0.0449463 30.2145 0.0409273 32.8702 0.048952C43.4794 0.059986 103.226 0.107136 115.14 0.123186L246.769 0.349896L115.14 0.577586C102.858 0.581599 43.7922 0.647807 32.8702 0.65182C30.2305 0.659844 23.1072 0.655825 20.5296 0.66385C13.7353 0.248573 6.92078 3.63399 3.4118 9.51508C-4.39317 22.2884 5.51521 38.5965 20.4204 37.6958C83.9379 37.762 194.51 37.8603 259 38.0087Z" fill="white"/>
</svg>
