<svg width="257" height="39" viewBox="0 0 257 39" fill="none" xmlns="http://www.w3.org/2000/svg">
<path id="Vector" d="M257 37.6713C192.5 37.7528 83.683 37.9865 20.2631 37.9825C5.00649 38.914 -5.23719 22.1691 2.82584 9.08465C6.42511 3.07781 13.4356 -0.398857 20.3715 0.0365938C22.9014 0.0445473 29.9815 0.040564 32.6168 0.0485174C43.144 0.0594534 102.429 0.106185 114.25 0.122092L244.863 0.34679L114.25 0.572459C102.063 0.576435 43.4544 0.642056 32.6168 0.646033C29.9974 0.653987 22.9292 0.650003 20.3715 0.657957C13.6296 0.246366 6.86781 3.60173 3.38593 9.43061C-4.35876 22.0905 5.47306 38.2539 20.2631 37.3611C83.2901 37.4267 193.008 37.5242 257 37.6713Z" fill="white"/>
</svg>
