<svg width="230" height="50" viewBox="0 0 230 50" fill="none" xmlns="http://www.w3.org/2000/svg">
<path id="Vector" d="M3.30486e-06 1.23044C57.7007 0.91361 155.046 0.255327 211.78 0.0521844C225.424 -1.1979 234.67 20.3387 227.519 37.2201C224.328 44.9697 218.069 49.4712 211.862 48.9331C209.602 48.9311 203.265 48.9595 200.908 48.9579C191.494 48.9784 138.458 49.1129 127.879 49.1312L11.0329 49.2707L127.877 48.5511C138.782 48.5059 191.213 48.2289 200.905 48.1882C203.251 48.1694 209.575 48.1513 211.859 48.1327C217.893 48.6407 223.926 44.2963 227.016 36.7763C233.885 20.4428 225.01 -0.346004 211.783 0.852605C155.402 0.975044 57.2497 1.20982 3.30486e-06 1.23044Z" fill="white"/>
</svg>
