<svg width="230" height="50" viewBox="0 0 230 50" fill="none" xmlns="http://www.w3.org/2000/svg">
<path id="Vector" d="M230 1.23044C172.299 0.91361 74.9544 0.255327 18.2198 0.0521844C4.57581 -1.1979 -4.66983 20.3387 2.48145 37.2201C5.67204 44.9697 11.9307 49.4712 18.1384 48.9331C20.398 48.9311 26.7354 48.9595 29.092 48.9579C38.506 48.9784 91.5422 49.1129 102.121 49.1312L218.967 49.2707L102.123 48.5511C91.2178 48.5059 38.7873 48.2289 29.0949 48.1882C26.749 48.1694 20.4249 48.1513 18.1413 48.1327C12.1073 48.6407 6.0741 44.2963 2.98412 36.7763C-3.88527 20.4428 4.99008 -0.346004 18.2168 0.852605C74.5976 0.975044 172.75 1.20982 230 1.23044Z" fill="white"/>
</svg>
