<svg width="180" height="32" viewBox="0 0 180 32" fill="none" xmlns="http://www.w3.org/2000/svg">
<path id="Vector" d="M180 30.7009C133.013 30.9097 72.8557 30.945 25.936 31.0045C23.9374 30.9884 19.0032 31.0439 17.0326 30.9964C11.9796 30.8078 7.09906 28.656 3.94443 25.2312C-4.39489 16.4557 1.20354 2.71495 14.0365 0.38262C17.4009 -0.25998 22.4679 0.122352 25.936 0.031561C55.1061 0.0628336 103.351 0.133452 132.598 0.165734C132.594 0.165734 180 0.339243 180 0.339243L132.594 0.508719C103.277 0.559159 55.1608 0.598504 25.936 0.645917C22.5494 0.748814 17.4918 0.37455 14.1962 1.01312C1.9459 3.26272 -3.38446 16.4123 4.54581 24.8095C7.55477 28.1002 12.2243 30.1733 17.0687 30.3659C18.9531 30.4013 23.956 30.3861 25.936 30.3942C72.8277 30.4567 133.053 30.484 180 30.7009Z" fill="white"/>
</svg>
