<svg width="597" height="83" viewBox="0 0 597 83" fill="none" xmlns="http://www.w3.org/2000/svg">
<path id="Vector" d="M597 0.425744C447.164 0.338204 194.38 -0.0168321 47.0533 0.078656C11.6106 -1.9107 -12.1714 34.2387 6.57587 62.4636C14.9424 75.4213 31.2417 82.9142 47.3557 81.965C53.2233 81.9444 69.68 81.9433 75.7995 81.9225C100.245 81.8845 237.967 81.7024 265.438 81.6519L568.856 80.988L265.437 80.68C237.118 80.6881 100.968 80.6268 75.7988 80.6331C69.707 80.6195 53.285 80.6378 47.3549 80.6241C31.6915 81.5216 15.9793 74.29 7.8765 61.7162C-10.1331 34.407 12.6953 -0.486779 47.0541 1.41955C193.46 1.19158 448.338 0.830962 597 0.425744Z" fill="black"/>
</svg>
