<svg width="25" height="25" viewBox="0 0 25 25" fill="none" xmlns="http://www.w3.org/2000/svg">
<g id="ei:arrow-up">
<path id="Vector" d="M4 12.5C4 17.2 7.8 21 12.5 21C17.2 21 21 17.2 21 12.5C21 7.8 17.2 4 12.5 4C7.8 4 4 7.8 4 12.5ZM20 12.5C20 16.65 16.65 20 12.5 20C8.35 20 5 16.65 5 12.5C5 8.35 8.35 5 12.5 5C16.65 5 20 8.35 20 12.5Z" fill="white"/>
<path id="Vector_2" d="M11.6492 8.34998L15.7992 12.5L11.6492 16.65L12.3492 17.35L17.1992 12.5L12.3492 7.64997L11.6492 8.34998Z" fill="white"/>
<path id="Vector_3" d="M16.5 13V12H8V13H16.5Z" fill="white"/>
</g>
</svg>
