<svg width="158" height="148" viewBox="0 0 158 148" fill="none" xmlns="http://www.w3.org/2000/svg">
<g id="Group">
<path id="Vector" d="M118.542 115.647L136.16 114.178C142.022 113.63 147.916 113.161 153.712 112.241C155.039 111.935 156.529 111.886 157.429 111.128C157.396 110.999 157.02 110.756 156.725 110.611C153.057 108.981 149.03 108.352 145.1 107.625C139.304 106.657 133.442 106.076 127.58 105.801C103.92 104.478 80.948 110.966 57.7793 114.792L57.3536 114.872L57.0261 114.582C48.6592 107.222 41.9787 97.9247 38.0327 87.5464C25.294 55.6849 39.8993 17.6416 70.7963 1.96915L71.6969 4.55164C59.7605 6.85974 48.4954 12.2184 39.4408 20.2241C21.0532 35.9934 12.8173 62.0443 18.6954 85.3512C21.7245 98.0054 28.7979 109.514 38.3274 118.456C26.6203 120.296 14.733 121.732 3.15684 123.879C2.91123 123.927 2.58376 124.04 2.60014 124.04C2.55101 124.056 2.682 123.992 2.7475 123.943C2.82937 123.879 2.86211 123.846 2.96036 123.717C3.45156 123.152 3.3042 122.168 2.73112 121.764C5.98948 122.636 10.0174 122.781 13.5705 123.12C19.1375 123.524 31.2049 124.298 36.559 124.783C39.4735 125.218 43.0103 125.025 45.8756 126.494C46.0885 126.719 46.3996 126.849 46.5961 127.64C46.8744 128.56 45.8756 129.593 45.1879 129.786C35.5603 132.304 25.163 131.723 15.5681 133.854C15.3552 133.902 15.0441 134.063 15.1751 133.983C15.2242 133.95 15.2406 133.934 15.2897 133.87C15.5681 133.612 15.6663 133.095 15.6008 132.74C15.5026 132.288 15.3388 132.191 15.1096 131.997C15.0605 131.981 15.1096 131.997 15.126 131.997C30.4353 134.402 46.1704 133.256 61.6107 135.597C63.2972 136.033 66.6865 136.097 67.145 138.567C67.2432 139.196 66.7193 140.019 66.1953 140.278C64.0013 141.311 61.6762 141.198 59.4003 141.456L44.0582 142.311C39.7192 142.747 34.3486 142.747 30.7137 144.571C30.7628 144.442 30.7137 144.313 30.73 144.41C30.73 144.458 30.8446 144.555 30.8938 144.619C30.8938 144.619 30.7628 144.474 30.6809 144.426C30.5335 144.329 30.4681 144.345 30.5663 144.361C45.0242 145.652 59.7114 144.974 74.2511 145.007C84.4683 144.861 94.7018 144.636 104.903 144.119C110.584 143.732 117.052 143.635 122.144 142.327C122.144 142.327 122.111 142.36 122.029 142.505C121.931 142.731 121.915 143.118 122.062 143.247C121.374 142.715 120.015 142.279 118.853 141.892C115.202 140.713 111.387 139.955 107.752 138.47C107.08 138.147 106.376 137.856 105.918 137.179C104.018 133.66 113.466 133.176 115.447 132.708C126.958 131.013 138.78 130.884 150.176 129.108C149.734 129.35 149.75 130.206 150.258 130.432H150.225L150.077 130.4C143.921 129.657 131.215 129.641 124.829 129.35L117.15 129.044C114.367 128.785 111.436 128.963 108.652 128.059C108.145 127.817 108.079 127.075 108.472 126.784C108.98 126.413 109.16 126.429 109.651 126.284C113.286 125.493 119.344 125.057 123.077 124.654C131.411 123.604 140.499 123.685 148.522 121.377C148.653 121.28 148.555 121.312 148.604 121.425C147.556 120.828 146.066 120.715 144.756 120.489C133.36 118.972 121.767 118.924 110.371 117.455C110.077 117.374 108.161 117.164 109.029 116.648C112.14 115.889 115.398 115.986 118.575 115.679C118.198 115.776 106.72 116.373 109.454 117.116C116.069 118.181 122.832 118.165 129.512 118.665C135.914 119.23 142.431 119.004 148.686 120.683C152.108 122.813 139.516 123.75 138.436 124.024C133.344 124.654 128.251 125.17 123.176 125.719C119.246 126.235 112.975 126.639 109.356 127.688C109.356 127.688 109.422 127.64 109.487 127.43C109.504 127.252 109.438 127.026 109.307 126.962H109.34C113.744 127.849 120.31 127.623 124.878 127.849C131.15 128.043 143.757 127.978 149.914 128.592C150.258 128.64 150.618 128.705 150.945 128.818C151.453 128.979 151.862 129.754 151.486 130.222C151.24 130.577 151.24 130.48 151.076 130.609C149.521 131.239 147.818 131.255 146.246 131.497C136.078 132.611 125.861 133.256 115.742 134.709C113.106 135.096 109.585 135.694 107.719 136.549C107.768 136.452 107.752 136.355 107.768 136.242C107.621 135.839 107.702 136.129 107.915 136.194C112.14 138.179 116.986 138.76 121.407 140.455C122.128 140.746 122.995 141.068 123.7 141.73C123.978 142.037 124.223 142.44 124.223 142.925C124.223 143.28 123.912 143.845 123.814 143.877C122.848 144.765 121.604 144.797 120.458 145.071C105.099 147.153 89.7242 147.17 74.3003 147.654C60.1862 147.864 46.0558 148.203 31.9417 147.396C30.992 147.283 29.4529 147.331 28.6833 146.395C24.2788 139.971 40.3741 139.971 43.8781 139.503L59.2038 138.615C60.9885 138.454 63.0516 138.373 64.6562 137.856C64.5907 137.889 64.6071 137.873 64.4597 138.034C64.3778 138.131 64.3615 138.179 64.296 138.341C64.2305 138.486 64.2141 138.728 64.2305 138.825C64.2469 139.196 64.4597 139.358 64.4433 139.358C64.4925 139.39 64.4106 139.358 64.3615 139.309C62.4949 138.502 59.5804 138.276 57.4027 138.002C47.3165 137.017 37.0666 136.791 26.8331 136.226C22.5268 135.871 18.2042 136.016 13.9471 134.822C13.8324 134.774 13.7178 134.741 13.5377 134.628L13.2921 134.483C12.9155 134.176 12.7354 133.983 12.5553 133.386C12.1951 131.562 14.4219 130.932 15.699 130.69C24.7045 129.028 33.4808 128.898 42.3717 127.333C42.9448 127.22 43.567 127.075 43.8944 126.929C43.9436 126.929 44.009 126.832 43.7962 127.026C43.5178 127.284 43.3705 127.801 43.4523 128.172C43.6161 128.802 43.7962 128.834 43.9108 128.947C41.9951 128.43 38.7695 128.14 36.2643 127.898C30.9756 127.478 18.7282 126.655 13.3085 126.3C9.16596 125.799 4.90882 126.058 0.946398 124.46C-0.167008 123.863 -0.379866 122.119 0.749915 121.377C1.94519 120.618 3.12409 120.635 4.35211 120.344C14.5365 118.665 24.639 117.31 34.7743 115.808L33.8738 118.456C-5.30833 78.5561 15.9119 12.4282 71.1893 1.82388L80.5386 0L72.0898 4.40637C42.1916 19.5462 27.9301 55.814 39.9811 86.8039C43.7307 96.9079 50.1492 105.995 58.2377 113.226L57.4845 113.016C80.686 109.304 103.92 103.17 127.646 104.833C136.487 105.414 145.345 106.463 153.876 108.916C155.268 109.465 157.053 109.675 157.97 110.982C158.084 111.273 157.855 111.596 157.626 111.725C156.463 112.371 155.088 112.5 153.794 112.742C143.741 114.162 128.841 114.888 118.558 115.663L118.542 115.647Z" fill="#B78F62"/>
<path id="Vector_2" d="M57.7793 114.017C57.8121 113.258 57.7138 112.532 58.1232 112.338H58.2378L58.5816 112.355L58.8436 115.47C58.5652 115.55 58.6307 115.534 58.4997 115.534C58.074 115.147 58.074 114.873 57.7793 114.033C57.8121 113.258 57.7302 112.661 58.0577 112.355C57.943 112.371 58.0904 112.338 57.7957 112.419L58.0577 115.534C58.1395 115.534 58.4506 115.567 58.5161 115.534C58.1395 115.26 58.0413 114.808 57.7793 114.017Z" fill="#B78F62"/>
</g>
</svg>
