<svg width="121" height="131" viewBox="0 0 121 131" fill="none" xmlns="http://www.w3.org/2000/svg">
<path id="Vector" d="M50.7587 0.0415253C46.621 0.0738971 41.9742 0.672776 38.1977 1.40114C8.24823 16.9234 -6.05329 55.0575 7.18095 85.746C16.9342 110.51 42.516 127.926 69.4935 127.797L69.8712 127.813H70.0682C69.6249 127.878 69.0995 128.509 69.1487 129.043C69.1816 129.238 69.1651 129.189 69.1651 129.221C69.1651 129.221 69.198 129.27 69.1651 129.254C69.0338 129.027 68.9024 128.865 68.7054 128.622C65.6021 124.997 61.2837 122.391 58.7222 118.215C58.4759 117.665 58.2953 117.05 58.4759 116.386C62.2853 109.912 93.1871 113.181 102.727 108.325C104.188 107.678 105.469 106.869 106.405 105.638C115.813 92.3175 119.968 75.5165 117.849 59.3629C116.06 43.355 107.883 28.2536 95.6829 17.5385C83.4831 6.61301 67.244 0.413801 50.7423 0.0253394C75.7987 -0.605911 100.592 13.6539 112.48 35.5372C120.591 50.0884 123.022 67.6501 119.294 83.836C117.324 92.2042 113.777 100.216 108.835 107.322C106.257 110.786 101.709 112.08 97.7189 112.922C85.7982 115.56 72.1535 113.537 60.9389 117.924C61.3494 117.875 61.6778 117.292 61.6614 116.936C61.6614 116.888 61.6285 116.774 61.6449 116.807C61.6778 116.823 61.6285 116.791 61.6778 116.855C63.0078 119.057 67.1127 122.31 68.9353 124.22C70.3309 125.741 73.9433 128.412 71.5953 130.549C70.9713 131.002 70.1667 131.034 69.4443 130.953C31.794 130.921 -0.487025 99.1803 0.00556442 61.9689C-0.322829 36.6379 15.0952 12.1486 37.9678 0.947937C42.1877 0.21957 46.4896 -0.0555902 50.7423 0.00915348L50.7587 0.0415253Z" fill="#B78F62"/>
</svg>
