<svg width="109" height="84" viewBox="0 0 109 84" fill="none" xmlns="http://www.w3.org/2000/svg">
<path id="Vector" d="M68.668 34.451L108.029 56.7063L109 54.7598C109 54.7598 76.5995 36.2515 69.8857 32.6342C69.573 30.8337 67.4503 28.725 66.2162 27.5246C64.9985 26.3242 63.7808 23.0151 62.8593 21.2146C61.9378 19.4141 54.9278 11.8875 54.9278 11.8875L55.2405 9.77875C57.9885 7.06983 56.7708 4.66911 56.4582 2.85235C56.1455 1.05182 50.6659 -1.6571 48.2141 1.34379C45.7787 4.34469 47.2926 7.36181 47.9014 9.76253C48.214 13.0716 46.3711 12.7634 43.9357 12.7634C41.5003 12.7634 38.1434 14.564 38.1434 14.564L28.6816 9.14613C27.1513 5.23685 24.4032 6.74541 24.4032 6.74541L18.2983 3.12811L17.0806 4.92865L24.107 8.83793L23.1855 13.3474C23.1855 13.3474 22.264 17.2567 22.8729 18.457C29.8993 27.7841 37.5181 23.8749 37.5181 23.8749L35.9878 38.6198C28.9613 34.1104 19.2033 31.6934 19.2033 31.6934V26.8758L17.3768 24.767L14.3326 25.9674L15.2541 50.9316L12.506 32.5856L0 50.9316C4.57458 84.0226 29.6854 89.2295 65.2288 79.7078C104.211 64.2653 79.9563 52.4239 79.9563 52.4239L66.2162 57.2416C74.7565 63.2596 77.2083 62.0593 82.3917 60.5507C75.678 69.8778 58.5809 54.2407 58.5809 54.2407L58.2682 31.369L58.8771 29.5685C63.7643 36.4949 68.6351 34.3861 68.6351 34.3861M29.6031 16.9971L27.4639 12.1795L28.3854 11.5793L36.3169 15.7968L29.6031 16.9971Z" fill="#B78F62"/>
</svg>
