<?xml version="1.0" encoding="UTF-8"?>
<svg id="Layer_1" data-name="Layer 1" xmlns="http://www.w3.org/2000/svg" viewBox="0 0 25 25">
  <defs>
    <style>
      .cls-1 {
        fill: #fff;
      }
    </style>
  </defs>
  <g id="ei:arrow-up">
    <path id="Vector" class="cls-1" d="M4,12.5c0,4.7,3.8,8.5,8.5,8.5s8.5-3.8,8.5-8.5-3.8-8.5-8.5-8.5S4,7.8,4,12.5ZM20,12.5c0,4.15-3.35,7.5-7.5,7.5s-7.5-3.35-7.5-7.5,3.35-7.5,7.5-7.5,7.5,3.35,7.5,7.5Z"/>
    <path id="Vector_2" data-name="Vector 2" class="cls-1" d="M11.65,8.35l4.15,4.15-4.15,4.15.7.7,4.85-4.85-4.85-4.85-.7.7Z"/>
    <path id="Vector_3" data-name="Vector 3" class="cls-1" d="M16.5,13v-1h-8.5v1h8.5Z"/>
  </g>
</svg>